<svg width="32" height="32" viewBox="0 0 32 32" fill="none" xmlns="http://www.w3.org/2000/svg">
<g clip-path="url(#clip0_5003_13567)">
<circle cx="16" cy="16" r="16" fill="#E24973"/>
<path fill-rule="evenodd" clip-rule="evenodd" d="M17.4685 15.0948L16.834 14.1949C17.9046 12.8369 19.1435 11.7404 20.9507 11.7404C22.2167 11.7311 23.4254 12.2493 24.2686 13.1629C25.1115 14.0764 25.5071 15.2967 25.3541 16.5122H20.117V15.4858H24.2776C24.0057 13.9142 22.598 12.7638 20.9507 12.7667C19.4917 12.7667 18.449 13.7933 17.4685 15.0948ZM11.1552 11.7404C13.3928 11.7404 14.8354 13.3446 16.3635 15.5408C17.8917 17.737 19.0957 19.2338 20.9201 19.2338C22.1769 19.2368 23.3364 18.589 23.9485 17.5419H25.1492C24.4564 19.189 22.7808 20.2665 20.9201 20.2615C18.6825 20.2615 17.2982 18.7264 15.7084 16.4573C14.1185 14.1882 12.9798 12.7678 11.1552 12.7678C9.26873 12.7553 7.72749 14.2015 7.70974 16.0007C7.72727 17.7999 9.26831 19.2463 11.155 19.234C12.6464 19.234 13.712 18.2096 14.7145 16.9071L15.3585 17.8128C14.2649 19.1685 12.9998 20.2615 11.1552 20.2615C8.67019 20.2767 6.6409 18.3708 6.61914 16.0007C6.64132 13.6308 8.6704 11.7249 11.1552 11.7404Z" fill="white"/>
</g>
<defs>
<clipPath id="clip0_5003_13567">
<rect width="32" height="32" fill="white"/>
</clipPath>
</defs>
</svg>
