<svg width="108" height="20" viewBox="0 0 108 20" fill="none" xmlns="http://www.w3.org/2000/svg">
<mask id="mask0_922_2679" style="mask-type:luminance" maskUnits="userSpaceOnUse" x="1" y="2" width="107" height="17">
<path d="M107.498 2.10059H1.87695V19H107.498V2.10059Z" fill="white"/>
</mask>
<g mask="url(#mask0_922_2679)">
<path d="M40.3959 15.6208C41.9912 15.6208 43.4577 14.9793 44.1726 13.6591C44.8509 14.8873 46.0977 15.6208 47.9678 15.6208C50.4061 15.6208 52.0376 14.4108 52.0376 12.541V12.3758H50.0941V12.5224C50.0941 13.3475 49.5077 13.8609 47.9861 13.8609C46.1342 13.8609 45.4559 13.0541 45.4012 11.3675H52.0193C52.0744 11.0742 52.1109 10.5976 52.1109 10.121C52.1109 7.60911 50.4061 6.14258 47.9861 6.14258C46.5926 6.14258 45.4559 6.63773 44.686 7.49926C44.0627 6.65598 42.9994 6.14258 41.5329 6.14258C39.1129 6.14258 37.5362 7.60911 37.5362 9.64414V9.82766H39.461V9.66272C39.461 8.2692 40.1394 7.88423 41.4595 7.88423C42.7794 7.88423 43.5311 8.21411 43.5311 9.75432V10.2126L40.3229 10.6159C38.4159 10.8359 37.2793 11.6792 37.2793 13.1643C37.2793 14.8143 38.5626 15.6208 40.3959 15.6208ZM47.8942 7.81089C49.4526 7.81089 50.2959 8.48923 50.2226 10.0294H45.4194C45.5293 8.63592 46.1711 7.81089 47.8942 7.81089ZM39.2045 12.9993C39.2045 12.3393 39.5712 12.0641 40.6159 11.936L43.5676 11.5693C43.5676 13.5124 42.1744 14.0627 40.8177 14.0627C39.681 14.0627 39.2045 13.751 39.2045 12.9993Z" fill="white"/>
<path d="M57.411 15.4486C58.0342 15.4486 58.6575 15.3752 59.0428 15.2836V13.6704H57.9244C56.6958 13.6704 56.2926 13.5055 56.2926 12.552V7.98715H59.0428V6.33709H56.2926V4.08203H54.7709L54.3495 6.33709H52.791V7.98715H54.3126V12.6436C54.3126 14.6969 55.3759 15.4486 57.411 15.4486Z" fill="white"/>
<path d="M64.1129 15.6208C66.5694 15.6208 68.2012 14.4108 68.2012 12.541V12.3758H66.2395V12.5224C66.2395 13.3475 65.6527 13.8609 64.1311 13.8609C62.2245 13.8609 61.6195 13.0176 61.5462 11.3493H68.1643C68.2194 11.0742 68.2745 10.5793 68.2745 10.1024C68.2745 7.60911 66.5511 6.14258 64.0943 6.14258C61.3812 6.14258 59.6943 8.04917 59.6943 10.8727C59.6943 13.7142 61.1061 15.6208 64.1129 15.6208ZM64.0578 7.81089C65.6159 7.81089 66.4595 8.47098 66.3862 10.0294H61.5644C61.6746 8.61767 62.3344 7.81089 64.0578 7.81089Z" fill="white"/>
<path d="M71.8344 15.4376V9.49745C71.8344 8.28745 72.2745 7.82914 73.4666 7.82914C74.6211 7.82914 74.9696 8.2692 74.9696 9.4792V9.84592H76.9499V9.24092C76.9499 7.5361 76.2161 6.14258 74.3092 6.14258C72.9714 6.14258 72.1278 6.87601 71.7611 7.71929H71.6695V6.27101H69.8545V15.4376H71.8344Z" fill="white"/>
<path d="M80.16 15.4376V10.1758C80.16 8.47098 80.8927 7.84773 82.5059 7.84773C84.1742 7.84773 84.6873 8.52607 84.6873 10.1575V15.4376H86.6676V9.71748C86.6676 7.64595 85.6043 6.14258 83.2397 6.14258C81.4612 6.14258 80.4895 7.0592 80.0677 8.03092H79.9943V6.32611H78.1797V15.4376H80.16Z" fill="white"/>
<path d="M90.4155 5.17498V3.1582H88.4355L88.4538 5.17498H90.4155ZM90.4337 15.4414V6.27479H88.4538V15.4414H90.4337Z" fill="white"/>
<path d="M95.9927 15.4486C96.6159 15.4486 97.2398 15.3752 97.6241 15.2836V13.6704H96.5061C95.2782 13.6704 94.8746 13.5055 94.8746 12.552V7.98715H97.6241V6.33709H94.8746V4.08203H93.353L92.9312 6.33709H91.373V7.98715H92.8947V12.6436C92.8947 14.6969 93.9576 15.4486 95.9927 15.4486Z" fill="white"/>
<path d="M100.202 18.5543C101.632 18.5543 102.512 18.1328 103.19 16.5196L107.499 6.32617H105.317L103.648 10.7444L102.897 12.7246H102.75L101.925 10.7444L100.092 6.32617H97.9102L101.779 15.1994L101.43 15.9693C101.137 16.6477 100.862 16.7761 100.073 16.7761H98.8271V18.3893C99.1384 18.4809 99.7072 18.5543 100.202 18.5543Z" fill="white"/>
<path fill-rule="evenodd" clip-rule="evenodd" d="M19.2333 9.68675L18.2183 8.24726C19.9309 6.07467 21.9129 4.32051 24.804 4.32051C26.8293 4.30564 28.7629 5.13472 30.1118 6.59618C31.4604 8.05764 32.0931 10.0099 31.8484 11.9543H23.4703V10.3124H30.1263C29.6914 7.79807 27.4393 5.95772 24.804 5.96245C22.4699 5.96245 20.8019 7.60474 19.2333 9.68675ZM9.13356 4.32051C12.7132 4.32051 15.021 6.88685 17.4656 10.4002C19.9103 13.9136 21.8365 16.3083 24.755 16.3083C26.7657 16.313 28.6206 15.2767 29.5998 13.6017H31.5205C30.4123 16.2366 27.7317 17.9604 24.755 17.9523C21.1754 17.9523 18.9609 15.4964 16.4175 11.8664C13.8742 8.23644 12.0524 5.96415 9.13356 5.96415C6.11566 5.9442 3.65004 8.25773 3.62165 11.136C3.6497 14.0143 6.11499 16.3282 9.13322 16.3086C11.5191 16.3086 13.2239 14.6697 14.8277 12.586L15.8578 14.035C14.1084 16.2038 12.0845 17.9523 9.13356 17.9523C5.15814 17.9766 1.91177 14.9276 1.87695 11.136C1.91244 7.34483 5.15848 4.29584 9.13356 4.32051Z" fill="#F5274E"/>
</g>
</svg>
