<svg width="182" height="35" viewBox="0 0 182 35" fill="none" xmlns="http://www.w3.org/2000/svg">
<path d="M46.5243 16.4277H43.9895V5.10565H46.5243V16.4277ZM38.075 16.4277H35.5402V5.10565H38.075V16.4277ZM45.2907 11.882H36.2499V9.60069H45.2907V11.882ZM49.5064 19.3005H48.1207V17.0023H50.1992C50.5147 17.0023 50.7513 16.9572 50.909 16.8671C51.0667 16.777 51.1963 16.6193 51.2976 16.3939L51.6525 15.5659L51.399 16.7488L47.1237 7.96152H49.9965L51.7877 11.8313L52.4975 13.8253H52.6664L53.3424 11.8144L54.9478 7.96152H57.7698L53.579 17.0361C53.3086 17.6219 52.9931 18.0782 52.6326 18.4049C52.2721 18.7428 51.8384 18.9738 51.3314 19.0977C50.8245 19.2329 50.2161 19.3005 49.5064 19.3005ZM64.3619 16.5967C63.3818 16.5967 62.6157 16.377 62.0637 15.9377C61.5229 15.487 61.1793 14.89 61.0328 14.1464H60.5935V12.3214H60.9146C60.9146 12.7945 61.0103 13.1776 61.2018 13.4705C61.3933 13.7634 61.6694 13.9718 62.0299 14.0957C62.4016 14.2196 62.8523 14.2816 63.3818 14.2816C63.9338 14.2816 64.3844 14.214 64.7336 14.0788C65.0829 13.9436 65.342 13.724 65.511 13.4198C65.68 13.1156 65.7645 12.71 65.7645 12.2031C65.7645 11.6736 65.68 11.2624 65.511 10.9695C65.342 10.6653 65.0829 10.4513 64.7336 10.3273C64.3844 10.1921 63.9394 10.1245 63.3987 10.1245C62.5763 10.1245 61.9566 10.2823 61.5398 10.5977C61.123 10.9019 60.9146 11.4314 60.9146 12.1862H60.5935L60.4076 10.2766H60.8977C61.0441 9.4655 61.3933 8.85151 61.9454 8.43468C62.5087 8.00658 63.286 7.79253 64.2774 7.79253C65.1448 7.79253 65.8771 7.97279 66.4742 8.33329C67.0826 8.69379 67.5444 9.20639 67.8599 9.87107C68.1753 10.5245 68.3331 11.3018 68.3331 12.2031C68.3331 13.0931 68.1753 13.8704 67.8599 14.5351C67.5557 15.1885 67.1051 15.6955 66.508 16.056C65.9222 16.4165 65.2068 16.5967 64.3619 16.5967ZM60.9146 19.3005H58.3798V7.96152H60.7287V10.4794L60.9146 10.6991V19.3005ZM73.882 16.5967C72.9469 16.5967 72.1189 16.439 71.3979 16.1236C70.6769 15.8081 70.1192 15.3237 69.7249 14.6703C69.3306 14.0169 69.1335 13.1945 69.1335 12.2031C69.1335 11.3018 69.3306 10.5245 69.7249 9.87107C70.1192 9.20639 70.6656 8.69379 71.3641 8.33329C72.0739 7.97279 72.8963 7.79253 73.8313 7.79253C74.7551 7.79253 75.5606 7.95025 76.2478 8.2657C76.9463 8.58114 77.487 9.04867 77.8701 9.66828C78.2531 10.2766 78.4446 11.0202 78.4446 11.8989C78.4446 12.0454 78.439 12.1805 78.4277 12.3045C78.4165 12.4284 78.3996 12.5636 78.377 12.71H70.7727V11.375H76.5858L76.0112 12.2031C76.0112 12.0904 76.0112 11.9834 76.0112 11.882C76.0112 11.7806 76.0112 11.6792 76.0112 11.5778C76.0112 10.9357 75.8366 10.4738 75.4874 10.1921C75.1381 9.9105 74.5692 9.76967 73.7806 9.76967C72.9244 9.76967 72.3273 9.93866 71.9894 10.2766C71.6514 10.6033 71.4824 11.1272 71.4824 11.8482V12.4904C71.4824 13.2114 71.6514 13.7409 71.9894 14.0788C72.3273 14.4055 72.9301 14.5689 73.7975 14.5689C74.5411 14.5689 75.0649 14.4731 75.3691 14.2816C75.6733 14.0901 75.8253 13.8141 75.8253 13.4536V13.2846H78.3601V13.4705C78.3601 14.0788 78.1743 14.6196 77.8025 15.0927C77.4307 15.5659 76.9069 15.9377 76.2309 16.2081C75.5662 16.4672 74.7833 16.5967 73.882 16.5967ZM82.0543 16.4277H79.5196V7.96152H81.8685V10.378L82.0543 10.4625V16.4277ZM82.0543 11.5271H81.5474V10.209H82.0205C82.0994 9.74714 82.2515 9.33594 82.4768 8.97544C82.7134 8.60367 83.0288 8.31639 83.4231 8.11361C83.8174 7.89956 84.2962 7.79253 84.8595 7.79253C85.5017 7.79253 86.0143 7.92772 86.3973 8.1981C86.7916 8.45721 87.0789 8.81208 87.2591 9.26271C87.4394 9.70208 87.5295 10.1978 87.5295 10.7498V12.1524H84.9947V11.2737C84.9947 10.8005 84.8877 10.4625 84.6736 10.2597C84.4708 10.0457 84.1103 9.93866 83.5921 9.93866C83.0288 9.93866 82.6289 10.0682 82.3923 10.3273C82.167 10.5864 82.0543 10.9864 82.0543 11.5271ZM92.9594 16.5967C92.0018 16.5967 91.1625 16.4165 90.4415 16.056C89.7205 15.6955 89.1628 15.1885 88.7685 14.5351C88.3855 13.8704 88.194 13.0931 88.194 12.2031C88.194 11.3018 88.3855 10.5245 88.7685 9.87107C89.1628 9.20639 89.7205 8.69379 90.4415 8.33329C91.1625 7.97279 92.0018 7.79253 92.9594 7.79253C93.8719 7.79253 94.6718 7.94462 95.359 8.2488C96.0462 8.55297 96.5813 8.98107 96.9643 9.53309C97.3474 10.0738 97.5389 10.7104 97.5389 11.4426V11.6792H95.021V11.544C95.021 11.0033 94.8351 10.6259 94.4634 10.4118C94.0916 10.1865 93.5734 10.0738 92.9087 10.0738C92.1539 10.0738 91.5962 10.2316 91.2357 10.547C90.8865 10.8625 90.7119 11.4145 90.7119 12.2031C90.7119 12.9691 90.8865 13.5155 91.2357 13.8422C91.5962 14.1577 92.1539 14.3154 92.9087 14.3154C93.5734 14.3154 94.0916 14.2084 94.4634 13.9943C94.8351 13.769 95.021 13.386 95.021 12.8452V12.71H97.5389V12.9466C97.5389 13.6789 97.3474 14.321 96.9643 14.8731C96.5813 15.4138 96.0462 15.8363 95.359 16.1405C94.6718 16.4446 93.8719 16.5967 92.9594 16.5967ZM108.127 16.4277H105.592V12.0003C105.592 11.2906 105.423 10.7949 105.085 10.5132C104.758 10.2203 104.195 10.0738 103.395 10.0738C102.832 10.0738 102.387 10.1527 102.06 10.3104C101.733 10.4682 101.502 10.7047 101.367 11.0202C101.232 11.3243 101.164 11.713 101.164 12.1862H100.793L100.826 10.547H101.3C101.39 10.0626 101.564 9.61195 101.823 9.19512C102.082 8.77829 102.449 8.44031 102.922 8.1812C103.406 7.92209 104.009 7.79253 104.73 7.79253C105.485 7.79253 106.116 7.94462 106.623 8.2488C107.13 8.55297 107.507 8.96417 107.755 9.4824C108.003 10.0006 108.127 10.5864 108.127 11.2399V16.4277ZM101.164 16.4277H98.6295V5.10565H101.164V16.4277ZM117.956 16.4277H115.591V14.4168L115.455 14.383V11.4257C115.455 10.8737 115.315 10.5019 115.033 10.3104C114.763 10.1189 114.289 10.0232 113.613 10.0232C112.971 10.0232 112.509 10.1189 112.228 10.3104C111.946 10.5019 111.805 10.8399 111.805 11.3243V11.3919H109.254V11.3412C109.254 10.6428 109.439 10.0288 109.811 9.4993C110.183 8.95854 110.707 8.54171 111.383 8.2488C112.07 7.94462 112.876 7.79253 113.799 7.79253C114.746 7.79253 115.523 7.94462 116.131 8.2488C116.751 8.55297 117.207 8.98107 117.5 9.53309C117.804 10.0738 117.956 10.716 117.956 11.4595V16.4277ZM112.008 16.5967C111.096 16.5967 110.38 16.3939 109.862 15.9884C109.344 15.5828 109.085 15.0308 109.085 14.3323C109.085 13.9042 109.186 13.5381 109.389 13.2339C109.592 12.9297 109.896 12.6875 110.301 12.5073C110.707 12.3157 111.214 12.1862 111.822 12.1186L115.624 11.7299V13.1832L112.515 13.5381C112.211 13.5606 111.986 13.6226 111.839 13.724C111.704 13.8141 111.636 13.9605 111.636 14.1633C111.636 14.3886 111.726 14.552 111.907 14.6534C112.087 14.7548 112.363 14.8055 112.735 14.8055C113.343 14.8055 113.844 14.7491 114.239 14.6365C114.633 14.5238 114.932 14.3436 115.134 14.0957C115.348 13.8366 115.455 13.493 115.455 13.0649L115.692 13.048V14.4844H115.455C115.264 15.1378 114.875 15.656 114.289 16.0391C113.715 16.4108 112.954 16.5967 112.008 16.5967ZM121.776 16.4277H119.241V7.96152H121.776V16.4277ZM121.776 7.09969H119.241V5.10565H121.776V7.09969ZM132.465 16.4277H129.93V12.0003C129.93 11.3131 129.772 10.823 129.457 10.5301C129.141 10.2259 128.595 10.0738 127.818 10.0738C127.006 10.0738 126.437 10.2428 126.111 10.5808C125.795 10.9075 125.638 11.4314 125.638 12.1524H125.317L125.131 10.5639H125.604C125.683 10.0907 125.852 9.64575 126.111 9.22892C126.37 8.80082 126.736 8.45721 127.209 8.1981C127.694 7.92772 128.308 7.79253 129.051 7.79253C129.817 7.79253 130.454 7.94462 130.961 8.2488C131.468 8.54171 131.845 8.94164 132.093 9.4486C132.341 9.95556 132.465 10.5245 132.465 11.1554V16.4277ZM125.638 16.4277H123.103V7.96152H125.452V10.5977L125.638 10.6822V16.4277ZM138.022 16.5967C136.603 16.5967 135.51 16.332 134.744 15.8025C133.978 15.2617 133.595 14.5013 133.595 13.5212V13.4705H136.13V13.6226C136.13 14.0056 136.265 14.2647 136.535 14.3999C136.817 14.5238 137.318 14.5858 138.039 14.5858C138.715 14.5858 139.16 14.5295 139.374 14.4168C139.6 14.2929 139.712 14.107 139.712 13.8591C139.712 13.6226 139.628 13.4592 139.459 13.3691C139.29 13.2677 138.957 13.1832 138.462 13.1156L136.079 12.8283C135.234 12.7382 134.581 12.5016 134.119 12.1186C133.668 11.7355 133.443 11.1835 133.443 10.4625C133.443 9.96682 133.589 9.52183 133.882 9.12753C134.175 8.72196 134.626 8.40088 135.234 8.1643C135.854 7.91646 136.648 7.79253 137.617 7.79253C138.541 7.79253 139.324 7.91082 139.966 8.14741C140.619 8.37272 141.115 8.71633 141.453 9.17822C141.791 9.64012 141.96 10.2147 141.96 10.9019V10.9526H139.425V10.8512C139.425 10.6146 139.374 10.4231 139.273 10.2766C139.183 10.1189 138.997 10.0006 138.715 9.92176C138.445 9.8429 138.051 9.80347 137.532 9.80347C136.901 9.80347 136.479 9.86543 136.265 9.98936C136.051 10.102 135.944 10.2935 135.944 10.5639C135.944 10.778 136.028 10.9413 136.197 11.054C136.378 11.1554 136.744 11.2455 137.296 11.3243L139.104 11.544C140.23 11.668 141.03 11.9271 141.503 12.3214C141.977 12.7157 142.213 13.2621 142.213 13.9605C142.213 14.49 142.044 14.9519 141.706 15.3462C141.368 15.7405 140.889 16.0503 140.27 16.2756C139.65 16.4897 138.901 16.5967 138.022 16.5967Z" fill="#212121"/>
<g clip-path="url(#clip0_1491_11761)">
<path d="M26.1021 5.47555V10.0263C26.1021 11.8778 25.1526 13.6072 23.5928 14.5974L13.1687 21.2303L12.4363 21.6982C12.3345 21.7593 12.2396 21.8339 12.1514 21.9085C11.541 22.4171 11.1816 23.1767 11.1816 23.9838V27.6732C11.1816 28.1751 10.9103 28.6092 10.5034 28.8398C10.3067 28.9618 10.0693 29.0297 9.82516 29.0297C9.07914 29.0297 8.46875 28.4193 8.46875 27.6732V23.9906C8.46875 22.1323 9.41824 20.4029 10.9849 19.4059L22.1346 12.3119C22.9145 11.8168 23.3893 10.9487 23.3893 10.0263V5.47555C23.3893 4.72953 23.9997 4.11914 24.7457 4.11914C24.9899 4.11914 25.2272 4.18696 25.4239 4.30226C25.5256 4.36329 25.6206 4.43112 25.702 4.51928C25.9529 4.76344 26.1021 5.10254 26.1021 5.47555Z" fill="#F5274E"/>
<path d="M21.7424 11.2404C21.6203 11.4914 21.0302 11.9186 21.0302 11.9186H13.4343C12.9325 11.9186 12.4984 12.2103 12.2407 12.6375C11.8338 13.309 11.047 13.7227 10.1722 13.587C9.33797 13.4582 8.64619 12.78 8.50377 11.9458C8.27996 10.6572 9.25658 9.54492 10.5045 9.54492C11.2573 9.54492 11.9084 9.95185 12.261 10.5487C12.5052 10.9759 12.946 11.2404 13.4343 11.2404H21.7424Z" fill="#F5274E"/>
<path d="M22.033 5.81466V6.49286H13.4334C12.9315 6.49286 12.4974 6.78449 12.2397 7.21176C11.8328 7.88319 11.0461 8.29689 10.1712 8.16125C9.33699 8.03239 8.64522 7.35418 8.50279 6.51999C8.27899 5.2314 9.2556 4.11914 10.5035 4.11914C11.2563 4.11914 11.9074 4.52606 12.2601 5.12289C12.5042 5.55016 12.945 5.81466 13.4334 5.81466H22.033Z" fill="#F5274E"/>
<path d="M13.1688 21.2314L12.4363 21.6994C12.3346 21.7604 12.2396 21.835 12.1514 21.9097H9.8252V21.2314H13.1688Z" fill="#F5274E"/>
<path d="M24.0675 23.6039C23.3147 23.6039 22.6636 23.197 22.3109 22.6002C22.0668 22.1729 21.6259 21.9084 21.1376 21.9084H13.5078C13.596 21.8338 13.6909 21.7592 13.7927 21.6982L14.5251 21.2302H21.1376C21.6395 21.2302 22.0736 20.9386 22.3313 20.5113C22.7382 19.8399 23.5249 19.4262 24.3998 19.5618C25.234 19.6907 25.9258 20.3689 26.0682 21.2031C26.292 22.4917 25.3154 23.6039 24.0675 23.6039Z" fill="#F5274E"/>
<path d="M11.1816 26.6562H9.8252V27.3345H11.1816V26.6562Z" fill="#F5274E"/>
<path d="M24.0676 29.0287C23.3148 29.0287 22.6637 28.6218 22.311 28.025C22.0669 27.5977 21.626 27.3332 21.1377 27.3332H12.5381V26.655H21.1377C21.6396 26.655 22.0737 26.3634 22.3314 25.9361C22.7383 25.2647 23.525 24.851 24.3999 24.9866C25.2341 25.1155 25.9259 25.7937 26.0683 26.6279C26.2921 27.9165 25.3155 29.0287 24.0676 29.0287Z" fill="#F5274E"/>
</g>
<path d="M37.9658 27.0071H35.7184V26.2475H37.8875C38.2842 26.2475 38.5818 26.1666 38.7802 26.0048C38.9838 25.843 39.0856 25.5663 39.0856 25.1748C39.0856 24.7885 38.9838 24.5144 38.7802 24.3526C38.5818 24.1855 38.2842 24.102 37.8875 24.102H35.7184V23.3424H37.9658C38.3573 23.3424 38.6992 23.4155 38.9916 23.5617C39.2891 23.7026 39.5188 23.9088 39.6807 24.1803C39.8477 24.4517 39.9312 24.7832 39.9312 25.1748C39.9312 25.5611 39.8477 25.89 39.6807 26.1614C39.5188 26.4329 39.2891 26.6417 38.9916 26.7879C38.6992 26.934 38.3573 27.0071 37.9658 27.0071ZM36.2431 28.5889H35.3974V23.3424H36.2431V28.5889ZM42.4257 28.6672C41.9976 28.6672 41.6192 28.5836 41.2903 28.4166C40.9666 28.2443 40.7134 28.0068 40.5307 27.704C40.3532 27.396 40.2645 27.0436 40.2645 26.6469C40.2645 26.2397 40.3532 25.8847 40.5307 25.582C40.7134 25.2792 40.9666 25.0443 41.2903 24.8772C41.6192 24.7049 41.9976 24.6188 42.4257 24.6188C42.8642 24.6188 43.2453 24.7049 43.5689 24.8772C43.8926 25.0443 44.1432 25.2792 44.3207 25.582C44.5034 25.8847 44.5947 26.2397 44.5947 26.6469C44.5947 27.0436 44.5034 27.396 44.3207 27.704C44.1432 28.0068 43.8926 28.2443 43.5689 28.4166C43.2453 28.5836 42.8642 28.6672 42.4257 28.6672ZM42.4257 27.9154C42.9007 27.9154 43.2427 27.8084 43.4515 27.5944C43.6603 27.3751 43.7647 27.0593 43.7647 26.6469C43.7647 26.2345 43.6603 25.9187 43.4515 25.6994C43.2427 25.4749 42.9007 25.3627 42.4257 25.3627C41.9559 25.3627 41.6165 25.4749 41.4077 25.6994C41.1989 25.9187 41.0945 26.2345 41.0945 26.6469C41.0945 27.0593 41.1989 27.3751 41.4077 27.5944C41.6165 27.8084 41.9559 27.9154 42.4257 27.9154ZM47.0721 28.5889H46.0228L44.8561 24.6971H45.7331L46.383 26.9053L46.5631 27.9076H46.6258L46.9155 26.827L47.7299 24.6971H48.8105L49.6327 26.827L49.9224 27.9076H49.9851L50.1652 26.9053L50.8151 24.6971H51.6765L50.4941 28.5889H49.4448L48.5912 26.3493L48.2937 25.394H48.231L47.9335 26.3493L47.0721 28.5889ZM54.0637 28.6672C53.6408 28.6672 53.2702 28.5889 52.9517 28.4323C52.6333 28.2756 52.3853 28.046 52.2078 27.7432C52.0356 27.4404 51.9494 27.075 51.9494 26.6469C51.9494 26.2397 52.0356 25.8847 52.2078 25.582C52.3853 25.2792 52.6307 25.0443 52.9439 24.8772C53.2571 24.7049 53.6252 24.6188 54.048 24.6188C54.45 24.6188 54.8023 24.6919 55.1051 24.8381C55.4131 24.979 55.6506 25.1878 55.8177 25.4645C55.99 25.736 56.0761 26.0701 56.0761 26.4668C56.0761 26.5347 56.0735 26.5999 56.0683 26.6626C56.0631 26.72 56.0552 26.7774 56.0448 26.8348H52.4897V26.365H55.4888L55.2696 26.6547C55.2748 26.6025 55.2774 26.5529 55.2774 26.506C55.2774 26.4537 55.2774 26.4015 55.2774 26.3493C55.2774 25.9891 55.173 25.7229 54.9642 25.5506C54.7606 25.3731 54.45 25.2844 54.0323 25.2844C53.5677 25.2844 53.2362 25.3914 53.0379 25.6054C52.8395 25.8195 52.7403 26.1275 52.7403 26.5294V26.733C52.7403 27.1402 52.8395 27.4508 53.0379 27.6649C53.2362 27.8789 53.5703 27.9859 54.0402 27.9859C54.4474 27.9859 54.7397 27.9233 54.9172 27.798C55.0999 27.6675 55.1913 27.4874 55.1913 27.2577V27.195H56.037V27.2655C56.037 27.5422 55.9508 27.7875 55.7785 28.0016C55.6115 28.2104 55.3792 28.3748 55.0816 28.4949C54.7893 28.6097 54.45 28.6672 54.0637 28.6672ZM57.5552 28.5889H56.7095V24.6971H57.4847V25.8012L57.5552 25.8404V28.5889ZM57.5552 26.4042H57.3673V25.7464H57.5396C57.5761 25.5324 57.6492 25.3418 57.7588 25.1748C57.8684 25.0025 58.0146 24.8668 58.1973 24.7676C58.3852 24.6684 58.6123 24.6188 58.8786 24.6188C59.1761 24.6188 59.4189 24.6814 59.6068 24.8067C59.7947 24.932 59.9305 25.0991 60.014 25.3079C60.1027 25.5167 60.1471 25.7438 60.1471 25.9891V26.4981H59.3092V26.1536C59.3092 25.8717 59.2466 25.6655 59.1213 25.535C58.996 25.4045 58.7872 25.3392 58.4949 25.3392C58.1608 25.3392 57.9206 25.4306 57.7745 25.6133C57.6283 25.796 57.5552 26.0596 57.5552 26.4042ZM62.6359 28.6672C62.2131 28.6672 61.8424 28.5889 61.524 28.4323C61.2056 28.2756 60.9576 28.046 60.7801 27.7432C60.6078 27.4404 60.5217 27.075 60.5217 26.6469C60.5217 26.2397 60.6078 25.8847 60.7801 25.582C60.9576 25.2792 61.2029 25.0443 61.5162 24.8772C61.8294 24.7049 62.1974 24.6188 62.6203 24.6188C63.0222 24.6188 63.3746 24.6919 63.6774 24.8381C63.9854 24.979 64.2229 25.1878 64.39 25.4645C64.5622 25.736 64.6484 26.0701 64.6484 26.4668C64.6484 26.5347 64.6458 26.5999 64.6405 26.6626C64.6353 26.72 64.6275 26.7774 64.617 26.8348H61.062V26.365H64.0611L63.8418 26.6547C63.847 26.6025 63.8497 26.5529 63.8497 26.506C63.8497 26.4537 63.8497 26.4015 63.8497 26.3493C63.8497 25.9891 63.7452 25.7229 63.5364 25.5506C63.3328 25.3731 63.0222 25.2844 62.6046 25.2844C62.14 25.2844 61.8085 25.3914 61.6101 25.6054C61.4118 25.8195 61.3126 26.1275 61.3126 26.5294V26.733C61.3126 27.1402 61.4118 27.4508 61.6101 27.6649C61.8085 27.8789 62.1426 27.9859 62.6124 27.9859C63.0196 27.9859 63.312 27.9233 63.4895 27.798C63.6722 27.6675 63.7635 27.4874 63.7635 27.2577V27.195H64.6092V27.2655C64.6092 27.5422 64.5231 27.7875 64.3508 28.0016C64.1838 28.2104 63.9515 28.3748 63.6539 28.4949C63.3616 28.6097 63.0222 28.6672 62.6359 28.6672ZM66.9967 28.6672C66.5843 28.6672 66.2345 28.5836 65.9474 28.4166C65.6655 28.2443 65.4514 28.0068 65.3053 27.704C65.1591 27.396 65.086 27.0436 65.086 26.6469C65.086 26.2397 65.1591 25.8847 65.3053 25.582C65.4514 25.2792 65.6629 25.0443 65.9395 24.8772C66.2162 24.7049 66.5503 24.6188 66.9419 24.6188C67.4012 24.6188 67.7641 24.7258 68.0303 24.9399C68.2965 25.1539 68.4688 25.4253 68.5471 25.7542H68.7429V26.6234H68.5941C68.5941 26.211 68.4766 25.903 68.2417 25.6994C68.0068 25.4906 67.6727 25.3862 67.2394 25.3862C66.9732 25.3862 66.7409 25.428 66.5425 25.5115C66.3441 25.5898 66.1927 25.7203 66.0883 25.903C65.9891 26.0857 65.9395 26.3337 65.9395 26.6469C65.9395 26.9549 65.9891 27.2003 66.0883 27.383C66.1927 27.5657 66.3441 27.6962 66.5425 27.7745C66.7409 27.8528 66.9784 27.892 67.2551 27.892C67.5318 27.892 67.7693 27.8502 67.9676 27.7667C68.1712 27.6779 68.3252 27.5422 68.4296 27.3595C68.5393 27.1768 68.5941 26.9523 68.5941 26.6861H68.7429L68.7977 27.4691H68.6098C68.5314 27.8554 68.3513 28.153 68.0694 28.3618C67.7928 28.5654 67.4352 28.6672 66.9967 28.6672ZM69.4398 28.5889H68.6646V27.3673L68.5941 27.2655V23.3424H69.4398V28.5889ZM74.0109 28.6672C73.5672 28.6672 73.207 28.5654 72.9303 28.3618C72.6536 28.153 72.4735 27.8554 72.39 27.4691H72.2021L72.2569 26.6861H72.4057C72.4057 26.9523 72.4579 27.1768 72.5623 27.3595C72.6719 27.5422 72.8259 27.6779 73.0243 27.7667C73.2279 27.8502 73.468 27.892 73.7447 27.892C74.0318 27.892 74.2719 27.8528 74.4651 27.7745C74.6634 27.6962 74.8122 27.5657 74.9114 27.383C75.0158 27.2003 75.068 26.9549 75.068 26.6469C75.068 26.3337 75.0158 26.0857 74.9114 25.903C74.807 25.7203 74.6582 25.5898 74.4651 25.5115C74.2719 25.428 74.037 25.3862 73.7603 25.3862C73.3218 25.3862 72.9851 25.4906 72.7502 25.6994C72.5205 25.903 72.4057 26.211 72.4057 26.6234H72.2569V25.7542H72.4526C72.5309 25.4253 72.7006 25.1539 72.9616 24.9399C73.2279 24.7258 73.5933 24.6188 74.0579 24.6188C74.4599 24.6188 74.7966 24.7049 75.068 24.8772C75.3447 25.0443 75.5535 25.2792 75.6945 25.582C75.8406 25.8847 75.9137 26.2397 75.9137 26.6469C75.9137 27.0436 75.8406 27.396 75.6945 27.704C75.5535 28.0068 75.3395 28.2443 75.0524 28.4166C74.7705 28.5836 74.4233 28.6672 74.0109 28.6672ZM72.3352 28.5889H71.56V23.3424H72.4057V27.2655L72.3352 27.3673V28.5889ZM77.1263 29.9201H76.5704V29.1527H77.3299C77.5022 29.1527 77.6301 29.124 77.7136 29.0665C77.8024 29.0143 77.8755 28.923 77.9329 28.7925L78.1756 28.2678L78.0817 28.6985L76.1084 24.6971H77.0559L78.0503 26.7644L78.434 27.6962H78.4967L78.8647 26.7565L79.7809 24.6971H80.7127L78.6846 29.0117C78.5802 29.2414 78.4575 29.4215 78.3166 29.552C78.1756 29.6877 78.0086 29.7817 77.8154 29.8339C77.6223 29.8913 77.3926 29.9201 77.1263 29.9201Z" fill="#212121"/>
<mask id="mask0_1491_11761" style="mask-type:luminance" maskUnits="userSpaceOnUse" x="84" y="21" width="61" height="10">
<path d="M145 21.1006H84.375V30.8006H145V21.1006Z" fill="white"/>
</mask>
<g mask="url(#mask0_1491_11761)">
<path d="M106.484 28.8612C107.4 28.8612 108.242 28.493 108.652 27.7353C109.041 28.4403 109.757 28.8612 110.83 28.8612C112.23 28.8612 113.166 28.1667 113.166 27.0935V26.9986H112.051V27.0828C112.051 27.5564 111.714 27.8511 110.841 27.8511C109.778 27.8511 109.389 27.388 109.357 26.4199H113.156C113.187 26.2516 113.208 25.978 113.208 25.7045C113.208 24.2627 112.23 23.4209 110.841 23.4209C110.041 23.4209 109.389 23.7051 108.947 24.1996C108.589 23.7156 107.979 23.4209 107.137 23.4209C105.748 23.4209 104.843 24.2627 104.843 25.4307V25.5361H105.948V25.4414C105.948 24.6415 106.337 24.4206 107.095 24.4206C107.852 24.4206 108.284 24.6099 108.284 25.494V25.757L106.442 25.9885C105.348 26.1148 104.695 26.5988 104.695 27.4512C104.695 28.3984 105.432 28.8612 106.484 28.8612ZM110.788 24.3785C111.683 24.3785 112.167 24.7678 112.125 25.6519H109.368C109.431 24.852 109.799 24.3785 110.788 24.3785ZM105.8 27.3566C105.8 26.9777 106.011 26.8198 106.61 26.7463L108.305 26.5358C108.305 27.6511 107.505 27.9669 106.726 27.9669C106.074 27.9669 105.8 27.788 105.8 27.3566Z" fill="#212121"/>
<path d="M116.251 28.7625C116.609 28.7625 116.967 28.7204 117.188 28.6678V27.7419H116.546C115.841 27.7419 115.609 27.6472 115.609 27.0999V24.4798H117.188V23.5326H115.609V22.2383H114.736L114.494 23.5326H113.6V24.4798H114.473V27.1525C114.473 28.331 115.083 28.7625 116.251 28.7625Z" fill="#212121"/>
<path d="M120.098 28.8612C121.508 28.8612 122.444 28.1667 122.444 27.0935V26.9986H121.318V27.0828C121.318 27.5564 120.982 27.8511 120.108 27.8511C119.014 27.8511 118.667 27.3671 118.624 26.4095H122.423C122.455 26.2516 122.486 25.9675 122.486 25.6938C122.486 24.2627 121.497 23.4209 120.087 23.4209C118.53 23.4209 117.562 24.5153 117.562 26.1359C117.562 27.7669 118.372 28.8612 120.098 28.8612ZM120.066 24.3785C120.96 24.3785 121.445 24.7574 121.403 25.6519H118.635C118.698 24.8416 119.077 24.3785 120.066 24.3785Z" fill="#212121"/>
<path d="M124.529 28.7561V25.3465C124.529 24.652 124.782 24.389 125.466 24.389C126.129 24.389 126.329 24.6415 126.329 25.3361V25.5466H127.465V25.1993C127.465 24.2208 127.044 23.4209 125.949 23.4209C125.182 23.4209 124.697 23.8419 124.487 24.3259H124.434V23.4946H123.393V28.7561H124.529Z" fill="#212121"/>
<path d="M129.309 28.7561V25.7359C129.309 24.7574 129.729 24.3996 130.655 24.3996C131.613 24.3996 131.907 24.789 131.907 25.7254V28.7561H133.044V25.4728C133.044 24.2838 132.433 23.4209 131.076 23.4209C130.055 23.4209 129.498 23.947 129.256 24.5048H129.213V23.5262H128.172V28.7561H129.309Z" fill="#212121"/>
<path d="M135.195 22.8656V21.708H134.059L134.069 22.8656H135.195ZM135.206 28.7584V23.4969H134.069V28.7584H135.206Z" fill="#212121"/>
<path d="M138.396 28.7625C138.753 28.7625 139.112 28.7204 139.332 28.6678V27.7419H138.69C137.986 27.7419 137.754 27.6472 137.754 27.0999V24.4798H139.332V23.5326H137.754V22.2383H136.881L136.638 23.5326H135.744V24.4798H136.618V27.1525C136.618 28.331 137.228 28.7625 138.396 28.7625Z" fill="#212121"/>
<path d="M140.812 30.5451C141.632 30.5451 142.137 30.3032 142.527 29.3772L145 23.5264H143.748L142.79 26.0623L142.358 27.199H142.274L141.801 26.0623L140.748 23.5264H139.496L141.717 28.6195L141.517 29.0614C141.348 29.4507 141.19 29.5245 140.738 29.5245H140.022V30.4504C140.201 30.503 140.528 30.5451 140.812 30.5451Z" fill="#212121"/>
<path fill-rule="evenodd" clip-rule="evenodd" d="M94.3373 25.4553L93.7547 24.629C94.7377 23.382 95.8753 22.3751 97.5348 22.3751C98.6972 22.3666 99.8071 22.8425 100.581 23.6813C101.355 24.5202 101.719 25.6407 101.578 26.7568H96.7693V25.8143H100.59C100.34 24.3712 99.0474 23.3148 97.5348 23.3176C96.195 23.3176 95.2376 24.2602 94.3373 25.4553ZM88.5402 22.3751C90.5948 22.3751 91.9195 23.8482 93.3227 25.8648C94.7259 27.8814 95.8315 29.2559 97.5067 29.2559C98.6608 29.2586 99.7254 28.6638 100.287 27.7024H101.39C100.754 29.2148 99.2152 30.2042 97.5067 30.1995C95.452 30.1995 94.1809 28.7899 92.7211 26.7064C91.2612 24.6228 90.2156 23.3185 88.5402 23.3185C86.808 23.3071 85.3927 24.635 85.3764 26.2871C85.3925 27.9392 86.8076 29.2673 88.54 29.2561C89.9094 29.2561 90.888 28.3154 91.8085 27.1194L92.3998 27.9511C91.3957 29.196 90.234 30.1995 88.5402 30.1995C86.2584 30.2135 84.395 28.4634 84.375 26.2871C84.3954 24.111 86.2585 22.361 88.5402 22.3751Z" fill="#F5274E"/>
</g>
<defs>
<clipPath id="clip0_1491_11761">
<rect width="17.6334" height="24.9105" fill="white" transform="translate(8.46875 4.11914)"/>
</clipPath>
</defs>
</svg>
