<svg width="159" height="28" viewBox="0 0 159 28" fill="none" xmlns="http://www.w3.org/2000/svg">
<path d="M41.8386 20.8821H38.7879V15.4112V14.0384V12.6657V7.25586H41.8386V20.8821ZM31.6698 20.8821H28.6191V7.25586H31.6698V12.6657V15.4112V20.8821ZM38.7879 15.4112H31.6698V12.6657H38.7879V14.0384V15.4112Z" fill="#212121"/>
<path d="M45.4275 24.3394H43.7598V21.5735H46.2614C46.641 21.5735 46.9257 21.5193 47.1156 21.4108C47.3054 21.3024 47.4613 21.1125 47.5833 20.8414L48.0104 19.8448L47.7053 21.2685L42.5599 10.6929H46.0173L48.1731 15.3502L49.0273 17.7501H49.2307L50.0442 15.3299L51.9762 10.6929H55.3726L50.3289 21.6142C50.0035 22.3192 49.6239 22.8684 49.19 23.2616C48.7561 23.6683 48.2341 23.9463 47.624 24.0954C47.0139 24.2581 46.2817 24.3394 45.4275 24.3394Z" fill="#212121"/>
<path d="M63.3062 21.0854C62.1266 21.0854 61.2046 20.821 60.5403 20.2923C59.8895 19.7499 59.4759 19.0313 59.2997 18.1365H58.7709V15.94H59.1573C59.1573 16.5095 59.2726 16.9705 59.5031 17.323C59.7335 17.6755 60.0657 17.9263 60.4996 18.0755C60.947 18.2246 61.4894 18.2992 62.1266 18.2992C62.791 18.2992 63.3333 18.2178 63.7536 18.0551C64.1739 17.8924 64.4858 17.628 64.6891 17.262C64.8925 16.8959 64.9942 16.4078 64.9942 15.7977C64.9942 15.1604 64.8925 14.6655 64.6891 14.313C64.4858 13.9469 64.1739 13.6893 63.7536 13.5402C63.3333 13.3775 62.7977 13.2961 62.1469 13.2961C61.1572 13.2961 60.4115 13.4859 59.9098 13.8656C59.4081 14.2317 59.1573 14.8689 59.1573 15.7773H58.7709L58.5472 13.4792H59.137C59.3132 12.503 59.7335 11.764 60.3979 11.2624C61.0758 10.7471 62.0114 10.4895 63.2045 10.4895C64.2485 10.4895 65.1298 10.7065 65.8484 11.1403C66.5805 11.5742 67.1364 12.1911 67.5161 12.9911C67.8957 13.7775 68.0855 14.713 68.0855 15.7977C68.0855 16.8688 67.8957 17.8043 67.5161 18.6042C67.15 19.3906 66.6077 20.0008 65.8891 20.4346C65.184 20.8685 64.3231 21.0854 63.3062 21.0854ZM59.1573 24.3394H56.1067V10.6929H58.9336V13.7232L59.1573 13.9876V24.3394Z" fill="#212121"/>
<path d="M74.7637 21.0854C73.6384 21.0854 72.6418 20.8956 71.7741 20.516C70.9064 20.1363 70.2352 19.5533 69.7607 18.7669C69.2861 17.9806 69.0489 16.9908 69.0489 15.7977C69.0489 14.713 69.2861 13.7775 69.7607 12.9911C70.2352 12.1911 70.8928 11.5742 71.7334 11.1403C72.5876 10.7065 73.5774 10.4895 74.7027 10.4895C75.8145 10.4895 76.7839 10.6794 77.611 11.059C78.4516 11.4386 79.1024 12.0013 79.5634 12.747C80.0244 13.4792 80.2549 14.374 80.2549 15.4316C80.2549 15.6078 80.2481 15.7705 80.2345 15.9197C80.221 16.0688 80.2006 16.2315 80.1735 16.4078H71.0216V14.8011H78.0177L77.3263 15.7977C77.3263 15.6621 77.3263 15.5333 77.3263 15.4112C77.3263 15.2892 77.3263 15.1672 77.3263 15.0452C77.3263 14.2723 77.1161 13.7164 76.6958 13.3775C76.2755 13.0385 75.5908 12.869 74.6417 12.869C73.6113 12.869 72.8927 13.0724 72.4859 13.4792C72.0792 13.8724 71.8758 14.5028 71.8758 15.3706V16.1434C71.8758 17.0111 72.0792 17.6484 72.4859 18.0551C72.8927 18.4483 73.618 18.6449 74.662 18.6449C75.5569 18.6449 76.1874 18.5297 76.5534 18.2992C76.9195 18.0687 77.1026 17.7365 77.1026 17.3026V17.0993H80.1532V17.323C80.1532 18.0551 79.9295 18.7059 79.482 19.2754C79.0346 19.8448 78.4042 20.2923 77.5907 20.6177C76.7907 20.9295 75.8484 21.0854 74.7637 21.0854Z" fill="#212121"/>
<path d="M84.5992 20.8821H81.5485V10.6929H84.3755V13.6012L84.5992 13.7029V20.8821ZM84.5992 14.9841H83.9891V13.3978H84.5585C84.6534 12.8419 84.8365 12.347 85.1076 11.9132C85.3923 11.4657 85.772 11.12 86.2465 10.876C86.7211 10.6183 87.2973 10.4895 87.9752 10.4895C88.7481 10.4895 89.365 10.6522 89.8259 10.9776C90.3005 11.2895 90.6462 11.7166 90.8632 12.2589C91.0801 12.7877 91.1886 13.3843 91.1886 14.0486V15.7366H88.1379V14.6791C88.1379 14.1096 88.0091 13.7029 87.7515 13.4588C87.5075 13.2012 87.0736 13.0724 86.4499 13.0724C85.772 13.0724 85.2907 13.2283 85.0059 13.5402C84.7348 13.852 84.5992 14.3333 84.5992 14.9841Z" fill="#212121"/>
<path d="M97.7234 21.0854C96.571 21.0854 95.5609 20.8685 94.6931 20.4346C93.8254 20.0008 93.1543 19.3906 92.6797 18.6042C92.2187 17.8043 91.9882 16.8688 91.9882 15.7977C91.9882 14.713 92.2187 13.7775 92.6797 12.9911C93.1543 12.1911 93.8254 11.5742 94.6931 11.1403C95.5609 10.7065 96.571 10.4895 97.7234 10.4895C98.8217 10.4895 99.7843 10.6726 100.611 11.0387C101.438 11.4047 102.082 11.9199 102.543 12.5843C103.004 13.2351 103.235 14.0012 103.235 14.8825V15.1672H100.205V15.0045C100.205 14.3537 99.9809 13.8995 99.5335 13.6419C99.0861 13.3707 98.4624 13.2351 97.6624 13.2351C96.754 13.2351 96.0829 13.4249 95.649 13.8046C95.2287 14.1842 95.0185 14.8486 95.0185 15.7977C95.0185 16.7196 95.2287 17.3772 95.649 17.7704C96.0829 18.15 96.754 18.3399 97.6624 18.3399C98.4624 18.3399 99.0861 18.211 99.5335 17.9534C99.9809 17.6823 100.205 17.2213 100.205 16.5705V16.4078H103.235V16.6925C103.235 17.5738 103.004 18.3466 102.543 19.011C102.082 19.6618 101.438 20.1702 100.611 20.5363C99.7843 20.9024 98.8217 21.0854 97.7234 21.0854Z" fill="#212121"/>
<path d="M115.977 20.8821H112.927V15.5536C112.927 14.6994 112.723 14.1029 112.316 13.7639C111.923 13.4114 111.245 13.2351 110.283 13.2351C109.605 13.2351 109.069 13.33 108.676 13.5198C108.283 13.7097 108.005 13.9944 107.842 14.374C107.679 14.7401 107.598 15.2079 107.598 15.7773H107.151L107.191 13.8046H107.761C107.869 13.2216 108.079 12.6792 108.391 12.1776C108.703 11.6759 109.144 11.2691 109.713 10.9573C110.296 10.6455 111.022 10.4895 111.889 10.4895C112.798 10.4895 113.557 10.6726 114.167 11.0387C114.777 11.4047 115.232 11.8996 115.53 12.5233C115.828 13.147 115.977 13.852 115.977 14.6384V20.8821ZM107.598 20.8821H104.548V7.25586H107.598V20.8821Z" fill="#212121"/>
<path d="M127.808 20.8821H124.96V18.4619L124.798 18.4212V14.8621C124.798 14.1978 124.628 13.7503 124.289 13.5198C123.964 13.2893 123.394 13.1741 122.581 13.1741C121.808 13.1741 121.252 13.2893 120.913 13.5198C120.574 13.7503 120.405 14.1571 120.405 14.7401V14.8214H117.334V14.7604C117.334 13.9198 117.557 13.1809 118.005 12.5436C118.452 11.8928 119.083 11.3912 119.896 11.0387C120.723 10.6726 121.693 10.4895 122.804 10.4895C123.943 10.4895 124.879 10.6726 125.611 11.0387C126.357 11.4047 126.906 11.9199 127.258 12.5843C127.624 13.2351 127.808 14.0079 127.808 14.9028V20.8821ZM120.649 21.0854C119.55 21.0854 118.689 20.8414 118.066 20.3533C117.442 19.8652 117.13 19.2008 117.13 18.3602C117.13 17.845 117.252 17.4043 117.496 17.0382C117.74 16.6722 118.106 16.3807 118.595 16.1637C119.083 15.9332 119.693 15.7773 120.425 15.696L125.001 15.2282V16.9772L121.259 17.4043C120.893 17.4314 120.622 17.506 120.445 17.628C120.283 17.7365 120.201 17.9128 120.201 18.1568C120.201 18.428 120.31 18.6246 120.527 18.7466C120.744 18.8686 121.076 18.9296 121.523 18.9296C122.255 18.9296 122.859 18.8619 123.333 18.7263C123.808 18.5907 124.167 18.3737 124.411 18.0755C124.669 17.7636 124.798 17.3501 124.798 16.8349L125.082 16.8145V18.5432H124.798C124.567 19.3296 124.099 19.9533 123.394 20.4143C122.703 20.8617 121.788 21.0854 120.649 21.0854Z" fill="#212121"/>
<path d="M132.404 20.8821H129.354V10.6929H132.404V20.8821ZM132.404 9.6557H129.354V7.25586H132.404V9.6557Z" fill="#212121"/>
<path d="M145.268 20.8821H142.218V15.5536C142.218 14.7265 142.028 14.1367 141.648 13.7842C141.269 13.4182 140.611 13.2351 139.675 13.2351C138.699 13.2351 138.015 13.4385 137.621 13.8452C137.242 14.2384 137.052 14.8689 137.052 15.7366H136.665L136.442 13.8249H137.011C137.106 13.2555 137.31 12.7199 137.621 12.2182C137.933 11.703 138.374 11.2895 138.943 10.9776C139.526 10.6522 140.265 10.4895 141.16 10.4895C142.082 10.4895 142.848 10.6726 143.458 11.0387C144.068 11.3912 144.523 11.8725 144.821 12.4826C145.119 13.0928 145.268 13.7775 145.268 14.5367V20.8821ZM137.052 20.8821H134.001V10.6929H136.828V13.8656L137.052 13.9673V20.8821Z" fill="#212121"/>
<path d="M151.957 21.0854C150.249 21.0854 148.933 20.7668 148.011 20.1296C147.09 19.4788 146.629 18.5636 146.629 17.384V17.323H149.679V17.506C149.679 17.967 149.842 18.2788 150.167 18.4415C150.506 18.5907 151.11 18.6653 151.977 18.6653C152.791 18.6653 153.326 18.5975 153.584 18.4619C153.855 18.3127 153.991 18.089 153.991 17.7907C153.991 17.506 153.889 17.3094 153.686 17.2009C153.482 17.0789 153.082 16.9772 152.486 16.8959L149.618 16.5501C148.601 16.4417 147.815 16.1569 147.259 15.696C146.717 15.235 146.445 14.5706 146.445 13.7029C146.445 13.1063 146.622 12.5708 146.974 12.0962C147.327 11.6081 147.869 11.2217 148.601 10.937C149.347 10.6387 150.303 10.4895 151.469 10.4895C152.581 10.4895 153.523 10.6319 154.296 10.9166C155.082 11.1878 155.679 11.6013 156.086 12.1572C156.492 12.7131 156.696 13.4046 156.696 14.2317V14.2927H153.645V14.1706C153.645 13.8859 153.584 13.6554 153.462 13.4792C153.354 13.2893 153.13 13.147 152.791 13.0521C152.465 12.9572 151.991 12.9097 151.367 12.9097C150.608 12.9097 150.099 12.9843 149.842 13.1334C149.584 13.269 149.455 13.4995 149.455 13.8249C149.455 14.0825 149.557 14.2791 149.761 14.4147C149.977 14.5367 150.418 14.6452 151.082 14.7401L153.259 15.0045C154.614 15.1536 155.577 15.4655 156.147 15.94C156.716 16.4146 157.001 17.0721 157.001 17.9128C157.001 18.55 156.797 19.1059 156.391 19.5804C155.984 20.055 155.408 20.4278 154.662 20.699C153.916 20.9566 153.015 21.0854 151.957 21.0854Z" fill="#212121"/>
<g clip-path="url(#clip0_788_2540)">
<path d="M18.1489 3.40764V7.75676C18.1489 9.52623 17.2415 11.179 15.7507 12.1253L5.78859 18.4643L5.08859 18.9115C4.99136 18.9699 4.90062 19.0412 4.81636 19.1124C4.23302 19.5986 3.8895 20.3245 3.8895 21.0958V24.6218C3.8895 25.1014 3.63023 25.5162 3.24134 25.7366C3.05338 25.8533 2.82652 25.9181 2.59319 25.9181C1.88021 25.9181 1.29688 25.3347 1.29688 24.6218V21.1023C1.29688 19.3263 2.20429 17.6735 3.70153 16.7208L14.3572 9.94105C15.1026 9.46789 15.5563 8.63825 15.5563 7.75676V3.40764C15.5563 2.69467 16.1396 2.11133 16.8526 2.11133C17.0859 2.11133 17.3128 2.17614 17.5008 2.28633C17.598 2.34466 17.6887 2.40948 17.7665 2.49374C18.0063 2.72708 18.1489 3.05115 18.1489 3.40764Z" fill="#F5274E"/>
<path d="M13.9815 8.91726C13.8648 9.15708 13.3009 9.56542 13.3009 9.56542H6.04159C5.56195 9.56542 5.14713 9.84413 4.90083 10.2525C4.51194 10.8941 3.76008 11.2895 2.92396 11.1599C2.12673 11.0367 1.46561 10.3886 1.3295 9.59135C1.11561 8.35985 2.04895 7.29688 3.24156 7.29688C3.96101 7.29688 4.58324 7.68577 4.92028 8.25614C5.15362 8.66448 5.57492 8.91726 6.04159 8.91726H13.9815Z" fill="#F5274E"/>
<path d="M14.2602 3.73172V4.37987H6.04159C5.56195 4.37987 5.14713 4.65858 4.90083 5.06692C4.51194 5.70859 3.76008 6.10397 2.92396 5.97433C2.12673 5.85119 1.46561 5.20303 1.3295 4.4058C1.11561 3.1743 2.04895 2.11133 3.24156 2.11133C3.96101 2.11133 4.58324 2.50022 4.92028 3.0706C5.15362 3.47894 5.57492 3.73172 6.04159 3.73172H14.2602Z" fill="#F5274E"/>
<path d="M5.78818 18.4648L5.08817 18.9121C4.99095 18.9704 4.90021 19.0417 4.81595 19.113H2.59277V18.4648H5.78818Z" fill="#F5274E"/>
<path d="M16.2051 20.7333C15.4856 20.7333 14.8634 20.3444 14.5263 19.774C14.293 19.3657 13.8717 19.1129 13.405 19.1129H6.11328C6.19754 19.0416 6.28828 18.9703 6.38551 18.912L7.08551 18.4647H13.405C13.8847 18.4647 14.2995 18.186 14.5458 17.7777C14.9347 17.136 15.6865 16.7406 16.5227 16.8703C17.3199 16.9934 17.981 17.6416 18.1171 18.4388C18.331 19.6703 17.3977 20.7333 16.2051 20.7333Z" fill="#F5274E"/>
<path d="M3.88908 23.6504H2.59277V24.2985H3.88908V23.6504Z" fill="#F5274E"/>
<path d="M16.2042 25.9188C15.4847 25.9188 14.8625 25.5299 14.5255 24.9595C14.2921 24.5512 13.8708 24.2984 13.4042 24.2984H5.18555V23.6503H13.4042C13.8838 23.6503 14.2986 23.3716 14.5449 22.9632C14.9338 22.3216 15.6857 21.9262 16.5218 22.0558C17.319 22.179 17.9801 22.8271 18.1163 23.6243C18.3301 24.8558 17.3968 25.9188 16.2042 25.9188Z" fill="#F5274E"/>
</g>
<defs>
<clipPath id="clip0_788_2540">
<rect width="16.852" height="23.8068" fill="white" transform="translate(1.29688 2.11133)"/>
</clipPath>
</defs>
</svg>
