<svg width="159" height="28" viewBox="0 0 159 28" fill="none" xmlns="http://www.w3.org/2000/svg">
<path d="M41.8386 20.883H38.7879V15.4122V14.0394V12.6666V7.25684H41.8386V20.883ZM31.6698 20.883H28.6191V7.25684H31.6698V12.6666V15.4122V20.883ZM38.7879 15.4122H31.6698V12.6666H38.7879V14.0394V15.4122Z" fill="white"/>
<path d="M45.4275 24.3404H43.7598V21.5745H46.2614C46.641 21.5745 46.9257 21.5203 47.1156 21.4118C47.3054 21.3033 47.4613 21.1135 47.5833 20.8424L48.0104 19.8458L47.7053 21.2694L42.5599 10.6939H46.0173L48.1731 15.3512L49.0273 17.751H49.2307L50.0442 15.3309L51.9762 10.6939H55.3726L50.3289 21.6152C50.0035 22.3202 49.6239 22.8693 49.19 23.2625C48.7561 23.6693 48.2341 23.9472 47.624 24.0964C47.0139 24.2591 46.2817 24.3404 45.4275 24.3404Z" fill="white"/>
<path d="M63.3062 21.0864C62.1266 21.0864 61.2046 20.822 60.5403 20.2932C59.8895 19.7509 59.4759 19.0323 59.2997 18.1375H58.7709V15.941H59.1573C59.1573 16.5104 59.2726 16.9714 59.5031 17.3239C59.7335 17.6765 60.0657 17.9273 60.4996 18.0764C60.947 18.2256 61.4894 18.3002 62.1266 18.3002C62.791 18.3002 63.3333 18.2188 63.7536 18.0561C64.1739 17.8934 64.4858 17.629 64.6891 17.2629C64.8925 16.8969 64.9942 16.4088 64.9942 15.7986C64.9942 15.1614 64.8925 14.6665 64.6891 14.314C64.4858 13.9479 64.1739 13.6903 63.7536 13.5412C63.3333 13.3785 62.7977 13.2971 62.1469 13.2971C61.1572 13.2971 60.4115 13.4869 59.9098 13.8666C59.4081 14.2326 59.1573 14.8699 59.1573 15.7783H58.7709L58.5472 13.4801H59.137C59.3132 12.5039 59.7335 11.765 60.3979 11.2633C61.0758 10.7481 62.0114 10.4905 63.2045 10.4905C64.2485 10.4905 65.1298 10.7074 65.8484 11.1413C66.5805 11.5752 67.1364 12.1921 67.5161 12.992C67.8957 13.7784 68.0855 14.714 68.0855 15.7986C68.0855 16.8697 67.8957 17.8053 67.5161 18.6052C67.15 19.3916 66.6077 20.0017 65.8891 20.4356C65.184 20.8695 64.3231 21.0864 63.3062 21.0864ZM59.1573 24.3404H56.1067V10.6939H58.9336V13.7242L59.1573 13.9886V24.3404Z" fill="white"/>
<path d="M74.7637 21.0864C73.6384 21.0864 72.6418 20.8966 71.7741 20.517C70.9064 20.1373 70.2352 19.5543 69.7607 18.7679C69.2861 17.9815 69.0489 16.9918 69.0489 15.7986C69.0489 14.714 69.2861 13.7784 69.7607 12.992C70.2352 12.1921 70.8928 11.5752 71.7334 11.1413C72.5876 10.7074 73.5774 10.4905 74.7027 10.4905C75.8145 10.4905 76.7839 10.6803 77.611 11.06C78.4516 11.4396 79.1024 12.0023 79.5634 12.748C80.0244 13.4801 80.2549 14.375 80.2549 15.4326C80.2549 15.6088 80.2481 15.7715 80.2345 15.9207C80.221 16.0698 80.2006 16.2325 80.1735 16.4088H71.0216V14.8021H78.0177L77.3263 15.7986C77.3263 15.663 77.3263 15.5342 77.3263 15.4122C77.3263 15.2902 77.3263 15.1682 77.3263 15.0461C77.3263 14.2733 77.1161 13.7174 76.6958 13.3785C76.2755 13.0395 75.5908 12.87 74.6417 12.87C73.6113 12.87 72.8927 13.0734 72.4859 13.4801C72.0792 13.8733 71.8758 14.5038 71.8758 15.3715V16.1444C71.8758 17.0121 72.0792 17.6494 72.4859 18.0561C72.8927 18.4493 73.618 18.6459 74.662 18.6459C75.5569 18.6459 76.1874 18.5306 76.5534 18.3002C76.9195 18.0697 77.1026 17.7375 77.1026 17.3036V17.1002H80.1532V17.3239C80.1532 18.0561 79.9295 18.7069 79.482 19.2764C79.0346 19.8458 78.4042 20.2932 77.5907 20.6186C76.7907 20.9305 75.8484 21.0864 74.7637 21.0864Z" fill="white"/>
<path d="M84.5992 20.883H81.5485V10.6939H84.3755V13.6022L84.5992 13.7039V20.883ZM84.5992 14.9851H83.9891V13.3988H84.5585C84.6534 12.8429 84.8365 12.348 85.1076 11.9141C85.3923 11.4667 85.772 11.121 86.2465 10.8769C86.7211 10.6193 87.2973 10.4905 87.9752 10.4905C88.7481 10.4905 89.365 10.6532 89.8259 10.9786C90.3005 11.2905 90.6462 11.7175 90.8632 12.2599C91.0801 12.7887 91.1886 13.3852 91.1886 14.0496V15.7376H88.1379V14.6801C88.1379 14.1106 88.0091 13.7039 87.7515 13.4598C87.5075 13.2022 87.0736 13.0734 86.4499 13.0734C85.772 13.0734 85.2907 13.2293 85.0059 13.5412C84.7348 13.853 84.5992 14.3343 84.5992 14.9851Z" fill="white"/>
<path d="M97.7234 21.0864C96.571 21.0864 95.5609 20.8695 94.6931 20.4356C93.8254 20.0017 93.1543 19.3916 92.6797 18.6052C92.2187 17.8053 91.9882 16.8697 91.9882 15.7986C91.9882 14.714 92.2187 13.7784 92.6797 12.992C93.1543 12.1921 93.8254 11.5752 94.6931 11.1413C95.5609 10.7074 96.571 10.4905 97.7234 10.4905C98.8217 10.4905 99.7843 10.6736 100.611 11.0396C101.438 11.4057 102.082 11.9209 102.543 12.5853C103.004 13.2361 103.235 14.0021 103.235 14.8834V15.1682H100.205V15.0055C100.205 14.3547 99.9809 13.9005 99.5335 13.6428C99.0861 13.3717 98.4624 13.2361 97.6624 13.2361C96.754 13.2361 96.0829 13.4259 95.649 13.8055C95.2287 14.1852 95.0185 14.8495 95.0185 15.7986C95.0185 16.7206 95.2287 17.3782 95.649 17.7714C96.0829 18.151 96.754 18.3408 97.6624 18.3408C98.4624 18.3408 99.0861 18.212 99.5335 17.9544C99.9809 17.6832 100.205 17.2223 100.205 16.5715V16.4088H103.235V16.6935C103.235 17.5748 103.004 18.3476 102.543 19.012C102.082 19.6628 101.438 20.1712 100.611 20.5373C99.7843 20.9034 98.8217 21.0864 97.7234 21.0864Z" fill="white"/>
<path d="M115.977 20.883H112.927V15.5546C112.927 14.7004 112.723 14.1038 112.316 13.7649C111.923 13.4124 111.245 13.2361 110.283 13.2361C109.605 13.2361 109.069 13.331 108.676 13.5208C108.283 13.7106 108.005 13.9954 107.842 14.375C107.679 14.7411 107.598 15.2088 107.598 15.7783H107.151L107.191 13.8055H107.761C107.869 13.2225 108.079 12.6802 108.391 12.1785C108.703 11.6769 109.144 11.2701 109.713 10.9583C110.296 10.6464 111.022 10.4905 111.889 10.4905C112.798 10.4905 113.557 10.6736 114.167 11.0396C114.777 11.4057 115.232 11.9006 115.53 12.5243C115.828 13.148 115.977 13.853 115.977 14.6394V20.883ZM107.598 20.883H104.548V7.25684H107.598V20.883Z" fill="white"/>
<path d="M127.808 20.883H124.96V18.4629L124.798 18.4222V14.8631C124.798 14.1987 124.628 13.7513 124.289 13.5208C123.964 13.2903 123.394 13.1751 122.581 13.1751C121.808 13.1751 121.252 13.2903 120.913 13.5208C120.574 13.7513 120.405 14.1581 120.405 14.7411V14.8224H117.334V14.7614C117.334 13.9208 117.557 13.1819 118.005 12.5446C118.452 11.8938 119.083 11.3921 119.896 11.0396C120.723 10.6736 121.693 10.4905 122.804 10.4905C123.943 10.4905 124.879 10.6736 125.611 11.0396C126.357 11.4057 126.906 11.9209 127.258 12.5853C127.624 13.2361 127.808 14.0089 127.808 14.9038V20.883ZM120.649 21.0864C119.55 21.0864 118.689 20.8424 118.066 20.3543C117.442 19.8661 117.13 19.2018 117.13 18.3612C117.13 17.8459 117.252 17.4053 117.496 17.0392C117.74 16.6731 118.106 16.3816 118.595 16.1647C119.083 15.9342 119.693 15.7783 120.425 15.6969L125.001 15.2292V16.9782L121.259 17.4053C120.893 17.4324 120.622 17.507 120.445 17.629C120.283 17.7375 120.201 17.9137 120.201 18.1578C120.201 18.429 120.31 18.6256 120.527 18.7476C120.744 18.8696 121.076 18.9306 121.523 18.9306C122.255 18.9306 122.859 18.8628 123.333 18.7272C123.808 18.5917 124.167 18.3747 124.411 18.0764C124.669 17.7646 124.798 17.3511 124.798 16.8358L125.082 16.8155V18.5442H124.798C124.567 19.3306 124.099 19.9543 123.394 20.4153C122.703 20.8627 121.788 21.0864 120.649 21.0864Z" fill="white"/>
<path d="M132.404 20.883H129.354V10.6939H132.404V20.883ZM132.404 9.65667H129.354V7.25684H132.404V9.65667Z" fill="white"/>
<path d="M145.268 20.883H142.218V15.5546C142.218 14.7275 142.028 14.1377 141.648 13.7852C141.269 13.4191 140.611 13.2361 139.675 13.2361C138.699 13.2361 138.015 13.4395 137.621 13.8462C137.242 14.2394 137.052 14.8699 137.052 15.7376H136.665L136.442 13.8259H137.011C137.106 13.2564 137.31 12.7209 137.621 12.2192C137.933 11.704 138.374 11.2905 138.943 10.9786C139.526 10.6532 140.265 10.4905 141.16 10.4905C142.082 10.4905 142.848 10.6736 143.458 11.0396C144.068 11.3921 144.523 11.8735 144.821 12.4836C145.119 13.0937 145.268 13.7784 145.268 14.5377V20.883ZM137.052 20.883H134.001V10.6939H136.828V13.8666L137.052 13.9682V20.883Z" fill="white"/>
<path d="M151.957 21.0864C150.249 21.0864 148.933 20.7678 148.011 20.1305C147.09 19.4797 146.629 18.5645 146.629 17.385V17.3239H149.679V17.507C149.679 17.968 149.842 18.2798 150.167 18.4425C150.506 18.5917 151.11 18.6662 151.977 18.6662C152.791 18.6662 153.326 18.5984 153.584 18.4629C153.855 18.3137 153.991 18.09 153.991 17.7917C153.991 17.507 153.889 17.3104 153.686 17.2019C153.482 17.0799 153.082 16.9782 152.486 16.8969L149.618 16.5511C148.601 16.4427 147.815 16.1579 147.259 15.6969C146.717 15.236 146.445 14.5716 146.445 13.7039C146.445 13.1073 146.622 12.5717 146.974 12.0972C147.327 11.6091 147.869 11.2227 148.601 10.9379C149.347 10.6397 150.303 10.4905 151.469 10.4905C152.581 10.4905 153.523 10.6329 154.296 10.9176C155.082 11.1888 155.679 11.6023 156.086 12.1582C156.492 12.7141 156.696 13.4056 156.696 14.2326V14.2936H153.645V14.1716C153.645 13.8869 153.584 13.6564 153.462 13.4801C153.354 13.2903 153.13 13.148 152.791 13.0531C152.465 12.9581 151.991 12.9107 151.367 12.9107C150.608 12.9107 150.099 12.9853 149.842 13.1344C149.584 13.27 149.455 13.5005 149.455 13.8259C149.455 14.0835 149.557 14.2801 149.761 14.4157C149.977 14.5377 150.418 14.6462 151.082 14.7411L153.259 15.0055C154.614 15.1546 155.577 15.4664 156.147 15.941C156.716 16.4155 157.001 17.0731 157.001 17.9137C157.001 18.551 156.797 19.1069 156.391 19.5814C155.984 20.056 155.408 20.4288 154.662 20.7C153.916 20.9576 153.015 21.0864 151.957 21.0864Z" fill="white"/>
<g clip-path="url(#clip0_922_2663)">
<path d="M18.1489 3.40862V7.75774C18.1489 9.5272 17.2415 11.18 15.7507 12.1263L5.78859 18.4653L5.08859 18.9125C4.99136 18.9708 4.90062 19.0421 4.81636 19.1134C4.23302 19.5995 3.8895 20.3255 3.8895 21.0968V24.6227C3.8895 25.1024 3.63023 25.5172 3.24134 25.7376C3.05338 25.8542 2.82652 25.9191 2.59319 25.9191C1.88021 25.9191 1.29688 25.3357 1.29688 24.6227V21.1033C1.29688 19.3273 2.20429 17.6745 3.70153 16.7217L14.3572 9.94202C15.1026 9.46887 15.5563 8.63923 15.5563 7.75774V3.40862C15.5563 2.69564 16.1396 2.1123 16.8526 2.1123C17.0859 2.1123 17.3128 2.17712 17.5008 2.28731C17.598 2.34564 17.6887 2.41046 17.7665 2.49472C18.0063 2.72805 18.1489 3.05213 18.1489 3.40862Z" fill="#F5274E"/>
<path d="M13.9815 8.91824C13.8648 9.15806 13.3009 9.5664 13.3009 9.5664H6.04159C5.56195 9.5664 5.14713 9.8451 4.90083 10.2534C4.51194 10.8951 3.76008 11.2905 2.92396 11.1609C2.12673 11.0377 1.46561 10.3896 1.3295 9.59232C1.11561 8.36083 2.04895 7.29785 3.24156 7.29785C3.96101 7.29785 4.58324 7.68674 4.92028 8.25712C5.15362 8.66546 5.57492 8.91824 6.04159 8.91824H13.9815Z" fill="#F5274E"/>
<path d="M14.2602 3.73269V4.38085H6.04159C5.56195 4.38085 5.14713 4.65956 4.90083 5.06789C4.51194 5.70957 3.76008 6.10494 2.92396 5.97531C2.12673 5.85216 1.46561 5.20401 1.3295 4.40678C1.11561 3.17528 2.04895 2.1123 3.24156 2.1123C3.96101 2.1123 4.58324 2.5012 4.92028 3.07157C5.15362 3.47991 5.57492 3.73269 6.04159 3.73269H14.2602Z" fill="#F5274E"/>
<path d="M5.78818 18.4648L5.08817 18.9121C4.99095 18.9704 4.90021 19.0417 4.81595 19.113H2.59277V18.4648H5.78818Z" fill="#F5274E"/>
<path d="M16.2051 20.7342C15.4856 20.7342 14.8634 20.3454 14.5263 19.775C14.293 19.3666 13.8717 19.1139 13.405 19.1139H6.11328C6.19754 19.0426 6.28828 18.9713 6.38551 18.9129L7.08551 18.4657H13.405C13.8847 18.4657 14.2995 18.187 14.5458 17.7787C14.9347 17.137 15.6865 16.7416 16.5227 16.8712C17.3199 16.9944 17.981 17.6425 18.1171 18.4398C18.331 19.6713 17.3977 20.7342 16.2051 20.7342Z" fill="#F5274E"/>
<path d="M3.88908 23.6504H2.59277V24.2985H3.88908V23.6504Z" fill="#F5274E"/>
<path d="M16.2042 25.9198C15.4847 25.9198 14.8625 25.5309 14.5255 24.9605C14.2921 24.5522 13.8708 24.2994 13.4042 24.2994H5.18555V23.6512H13.4042C13.8838 23.6512 14.2986 23.3725 14.5449 22.9642C14.9338 22.3225 15.6857 21.9272 16.5218 22.0568C17.319 22.1799 17.9801 22.8281 18.1163 23.6253C18.3301 24.8568 17.3968 25.9198 16.2042 25.9198Z" fill="#F5274E"/>
</g>
<defs>
<clipPath id="clip0_922_2663">
<rect width="16.852" height="23.8068" fill="white" transform="translate(1.29688 2.1123)"/>
</clipPath>
</defs>
</svg>
