<svg width="280" height="243" viewBox="0 0 280 243" fill="none" xmlns="http://www.w3.org/2000/svg" xmlns:xlink="http://www.w3.org/1999/xlink">
<g clip-path="url(#clip0_1842_17112)">
<path d="M139.46 154.017L246.749 173.314C251.422 174.154 255.891 171.047 256.731 166.375L274.05 70.0803L238.457 18.8762L166.107 5.86346C161.434 5.02307 156.965 8.12962 156.125 12.8022L132.522 144.035C131.681 148.707 134.788 153.176 139.46 154.017Z" fill="#D9D9D9" fill-opacity="0.45"/>
<g filter="url(#filter0_d_1842_17112)">
<path d="M274.226 70.04L239.375 63.8004C234.714 62.966 231.612 58.5111 232.446 53.8502L238.686 18.9991L256.456 44.5196L274.226 70.04Z" fill="#C4C4C4"/>
</g>
<g filter="url(#filter1_d_1842_17112)">
<path d="M111.135 281.13L237.713 248.023C243.226 246.582 246.526 240.944 245.084 235.431L215.37 121.823L150.777 84.0139L65.418 106.34C59.9054 107.781 56.6054 113.419 58.0472 118.932L98.5424 273.759C99.9842 279.272 105.622 282.572 111.135 281.13Z" fill="#D9D9D9"/>
<path d="M237.55 247.4L110.971 280.506C105.803 281.858 100.518 278.764 99.1662 273.596L58.671 118.769C57.3193 113.6 60.4131 108.315 65.5812 106.963L150.682 84.7053L214.814 122.245L244.46 235.594C245.812 240.763 242.718 246.048 237.55 247.4Z" stroke="#F2F2F2" stroke-width="1.28966"/>
</g>
<mask id="mask0_1842_17112" style="mask-type:alpha" maskUnits="userSpaceOnUse" x="57" y="84" width="189" height="198">
<path d="M237.55 247.4L110.971 280.506C105.803 281.858 100.518 278.764 99.1662 273.596L58.671 118.769C57.3193 113.6 60.4131 108.315 65.5812 106.963L150.682 84.7053L214.814 122.245L244.46 235.594C245.812 240.763 242.718 246.048 237.55 247.4Z" fill="#D9D9D9" stroke="#F2F2F2" stroke-width="1.28966"/>
</mask>
<g mask="url(#mask0_1842_17112)">
<rect x="55.4365" y="108.95" width="151.471" height="180.67" transform="rotate(-14.6574 55.4365 108.95)" fill="url(#pattern0_1842_17112)"/>
<path d="M237.55 247.4L110.971 280.506C105.803 281.858 100.518 278.764 99.1662 273.596L58.671 118.769C57.3193 113.6 60.4131 108.315 65.5812 106.963L150.682 84.7053L214.814 122.245L244.46 235.594C245.812 240.763 242.718 246.048 237.55 247.4Z" fill="url(#paint0_linear_1842_17112)" style="mix-blend-mode:hue"/>
<path d="M237.55 247.4L110.971 280.506C105.803 281.858 100.518 278.764 99.1662 273.596L58.671 118.769C57.3193 113.6 60.4131 108.315 65.5812 106.963L150.682 84.7053L214.814 122.245L244.46 235.594C245.812 240.763 242.718 246.048 237.55 247.4Z" stroke="#F2F2F2" stroke-width="1.28966"/>
</g>
<rect x="97" y="32" width="74.823" height="38.5452" rx="10.1198" fill="#C4C4C4" fill-opacity="0.65"/>
<path d="M113.193 45.9027L115.96 51.7742L118.744 45.9027L121.356 45.9027L117.17 53.8842L117.17 58.4932L114.758 58.4932L114.758 53.8842L110.564 45.9027L113.193 45.9027ZM126.553 47.8138L122.964 58.4932L120.448 58.4932L125.152 45.9027L126.76 45.9027L126.553 47.8138ZM129.553 58.4932L125.947 47.8138L125.731 45.9027L127.348 45.9027L132.078 58.4932L129.553 58.4932ZM129.389 53.815L129.389 55.6914L122.635 55.6914L122.635 53.815L129.389 53.815ZM134.413 45.9027L136.471 45.9027L139.913 55.3801L143.346 45.9027L145.412 45.9027L140.734 58.4932L139.083 58.4932L134.413 45.9027ZM133.375 45.9027L135.39 45.9027L135.753 54.6105L135.753 58.4932L133.375 58.4932L133.375 45.9027ZM144.427 45.9027L146.45 45.9027L146.45 58.4932L144.072 58.4932L144.072 54.6105L144.427 45.9027ZM156.861 56.6253L156.861 58.4932L150.532 58.4932L150.532 56.6253L156.861 56.6253ZM151.249 45.9027L151.249 58.4932L148.871 58.4932L148.871 45.9027L151.249 45.9027Z" fill="#767676"/>
<g filter="url(#filter2_d_1842_17112)">
<path d="M215.369 121.822L174.149 132.603C168.637 134.045 162.999 130.745 161.557 125.232L150.776 84.0127L183.073 102.917L215.369 121.822Z" fill="#AEACFF"/>
</g>
<g filter="url(#filter3_d_1842_17112)">
<rect x="28" y="76" width="69.2921" height="69.2921" rx="10.3173" fill="white"/>
<rect x="28.6448" y="76.6448" width="68.0024" height="68.0024" rx="9.67243" stroke="#EFEFEF" stroke-width="1.28966"/>
</g>
<path d="M62.6756 117.178V102.572" stroke="#212121" stroke-width="2.73743" stroke-linecap="round" stroke-linejoin="round"/>
<path d="M68.1525 111.703L62.6754 117.18L57.1982 111.703" stroke="#212121" stroke-width="2.73743" stroke-linecap="round" stroke-linejoin="round"/>
<path d="M62.543 93.4443C71.6178 93.4443 78.9744 100.801 78.9744 109.876C78.9744 118.951 71.6178 126.307 62.543 126.307" stroke="#212121" stroke-width="2.73743" stroke-linecap="round" stroke-linejoin="round"/>
<path d="M56.9294 125.301C55.1283 124.649 53.4551 123.686 51.9854 122.458" stroke="#212121" stroke-width="2.73743" stroke-linecap="round" stroke-linejoin="round"/>
<path d="M51.9854 97.2938C53.4542 96.0641 55.1276 95.1019 56.9294 94.4512" stroke="#212121" stroke-width="2.73743" stroke-linecap="round" stroke-linejoin="round"/>
<path d="M46.375 107.024C46.7049 105.136 47.3643 103.32 48.323 101.66" stroke="#212121" stroke-width="2.73743" stroke-linecap="round" stroke-linejoin="round"/>
<path d="M46.375 112.726C46.7047 114.615 47.3641 116.431 48.323 118.091" stroke="#212121" stroke-width="2.73743" stroke-linecap="round" stroke-linejoin="round"/>
<path d="M113.397 196.451L113.95 184.111L116.923 183.333L115.625 198.836L113.646 199.354L113.397 196.451ZM107.147 185.891L113.651 196.385L114.884 199.03L112.886 199.553L104.183 186.666L107.147 185.891ZM126.677 193.55L125.405 188.686C125.312 188.329 125.169 188.036 124.978 187.809C124.786 187.581 124.545 187.429 124.254 187.352C123.964 187.275 123.623 187.288 123.233 187.39C122.889 187.48 122.602 187.618 122.373 187.803C122.15 187.986 121.998 188.203 121.918 188.453C121.836 188.696 121.83 188.955 121.902 189.228L119.319 189.903C119.205 189.468 119.201 189.028 119.307 188.584C119.411 188.133 119.615 187.705 119.919 187.299C120.227 186.885 120.628 186.52 121.121 186.203C121.621 185.885 122.209 185.638 122.885 185.461C123.684 185.252 124.431 185.202 125.127 185.312C125.827 185.413 126.426 185.687 126.924 186.133C127.429 186.577 127.789 187.209 128.003 188.028L129.207 192.628C129.344 193.155 129.495 193.598 129.658 193.958C129.827 194.31 130.015 194.604 130.223 194.841L130.266 195.007L127.644 195.693C127.451 195.459 127.268 195.145 127.096 194.753C126.922 194.354 126.783 193.953 126.677 193.55ZM125.944 189.274L126.364 190.799L124.736 191.225C124.333 191.331 123.99 191.465 123.707 191.63C123.422 191.788 123.202 191.97 123.048 192.177C122.892 192.378 122.794 192.598 122.752 192.838C122.709 193.071 122.722 193.321 122.792 193.587C122.86 193.847 122.98 194.066 123.151 194.243C123.329 194.419 123.548 194.539 123.808 194.603C124.072 194.659 124.36 194.646 124.672 194.564C125.127 194.445 125.5 194.251 125.79 193.98C126.079 193.703 126.282 193.407 126.401 193.091C126.52 192.776 126.554 192.496 126.504 192.252L127.536 193.169C127.515 193.46 127.452 193.778 127.348 194.125C127.245 194.471 127.084 194.812 126.866 195.146C126.648 195.481 126.36 195.786 126.001 196.06C125.642 196.334 125.196 196.541 124.663 196.681C123.981 196.859 123.335 196.882 122.724 196.75C122.113 196.619 121.59 196.356 121.154 195.964C120.718 195.571 120.421 195.072 120.263 194.468C120.116 193.909 120.091 193.388 120.187 192.905C120.283 192.421 120.497 191.98 120.83 191.58C121.161 191.174 121.609 190.818 122.175 190.51C122.745 190.194 123.423 189.934 124.209 189.728L125.944 189.274ZM130.99 178.821L134.906 193.793L132.323 194.469L128.407 179.497L130.99 178.821ZM137.333 181.89L140.092 192.437L137.508 193.113L134.75 182.566L137.333 181.89ZM133.853 179.853C133.753 179.47 133.799 179.117 133.993 178.796C134.193 178.473 134.517 178.253 134.966 178.135C135.414 178.018 135.802 178.052 136.128 178.238C136.46 178.421 136.677 178.705 136.777 179.088C136.876 179.465 136.825 179.815 136.625 180.138C136.431 180.46 136.11 180.679 135.662 180.796C135.213 180.914 134.823 180.88 134.49 180.697C134.164 180.511 133.952 180.23 133.853 179.853ZM148.288 187.898L144.958 175.168L147.551 174.49L151.467 189.462L149.128 190.074L148.288 187.898ZM140.753 186.765L140.7 186.56C140.489 185.755 140.389 185 140.399 184.296C140.414 183.584 140.539 182.944 140.772 182.376C141.005 181.808 141.341 181.328 141.78 180.935C142.226 180.541 142.773 180.259 143.423 180.089C144.053 179.924 144.636 179.907 145.17 180.038C145.71 180.168 146.208 180.423 146.661 180.804C147.122 181.184 147.537 181.669 147.906 182.259C148.274 182.844 148.604 183.507 148.896 184.25L149.041 184.806C149.146 185.577 149.179 186.301 149.14 186.977C149.102 187.654 148.975 188.27 148.76 188.826C148.549 189.375 148.24 189.837 147.831 190.215C147.423 190.592 146.901 190.864 146.264 191.031C145.621 191.199 145.007 191.217 144.424 191.085C143.848 190.951 143.318 190.691 142.835 190.303C142.358 189.914 141.941 189.419 141.582 188.819C141.23 188.216 140.954 187.532 140.753 186.765ZM143.283 185.885L143.337 186.09C143.456 186.544 143.606 186.96 143.788 187.336C143.969 187.712 144.188 188.03 144.443 188.289C144.697 188.542 144.982 188.718 145.299 188.815C145.623 188.911 145.983 188.907 146.379 188.803C146.886 188.671 147.273 188.452 147.54 188.146C147.812 187.832 147.988 187.456 148.068 187.018C148.146 186.574 148.147 186.098 148.07 185.591L147.669 184.061C147.541 183.678 147.379 183.335 147.182 183.032C146.991 182.728 146.767 182.481 146.509 182.292C146.258 182.101 145.974 181.973 145.659 181.91C145.344 181.847 144.995 181.865 144.611 181.965C144.215 182.069 143.9 182.245 143.667 182.494C143.431 182.736 143.266 183.032 143.17 183.384C143.075 183.735 143.037 184.123 143.058 184.548C143.086 184.971 143.161 185.417 143.283 185.885ZM159.02 185.091L157.748 180.227C157.654 179.87 157.512 179.577 157.32 179.349C157.129 179.122 156.888 178.97 156.597 178.893C156.306 178.816 155.966 178.829 155.576 178.931C155.231 179.021 154.944 179.159 154.715 179.344C154.492 179.527 154.341 179.743 154.26 179.994C154.178 180.237 154.173 180.496 154.244 180.768L151.661 181.444C151.547 181.009 151.543 180.569 151.649 180.125C151.753 179.674 151.957 179.246 152.261 178.84C152.569 178.426 152.97 178.061 153.464 177.744C153.964 177.426 154.551 177.178 155.227 177.002C156.027 176.793 156.774 176.743 157.469 176.853C158.169 176.954 158.768 177.228 159.267 177.674C159.772 178.118 160.131 178.75 160.346 179.568L161.549 184.169C161.687 184.696 161.837 185.139 162.001 185.499C162.169 185.85 162.357 186.145 162.565 186.382L162.608 186.548L159.986 187.234C159.793 186.999 159.611 186.686 159.439 186.294C159.265 185.895 159.125 185.494 159.02 185.091ZM158.287 180.815L158.706 182.34L157.079 182.766C156.676 182.871 156.333 183.006 156.049 183.171C155.764 183.329 155.545 183.511 155.391 183.718C155.235 183.918 155.136 184.139 155.095 184.378C155.052 184.612 155.065 184.862 155.135 185.128C155.203 185.388 155.322 185.607 155.494 185.784C155.671 185.96 155.89 186.08 156.15 186.144C156.415 186.199 156.703 186.187 157.015 186.105C157.47 185.986 157.842 185.791 158.132 185.521C158.421 185.244 158.625 184.948 158.744 184.632C158.862 184.316 158.897 184.037 158.847 183.793L159.878 184.71C159.857 185.001 159.795 185.319 159.691 185.665C159.587 186.012 159.426 186.353 159.208 186.687C158.99 187.022 158.702 187.327 158.343 187.601C157.984 187.875 157.539 188.082 157.006 188.221C156.324 188.4 155.677 188.423 155.066 188.291C154.455 188.159 153.932 187.897 153.496 187.504C153.06 187.112 152.763 186.613 152.605 186.009C152.459 185.45 152.434 184.929 152.529 184.445C152.625 183.962 152.84 183.521 153.172 183.121C153.504 182.715 153.952 182.358 154.517 182.051C155.087 181.735 155.765 181.475 156.552 181.269L158.287 180.815ZM166.751 174.196L167.236 176.048L161.192 177.629L160.708 175.777L166.751 174.196ZM161.648 172.761L164.231 172.085L166.872 182.183C166.954 182.495 167.059 182.725 167.187 182.872C167.316 183.018 167.472 183.099 167.657 183.113C167.841 183.128 168.05 183.104 168.284 183.043C168.453 182.999 168.606 182.948 168.744 182.891C168.882 182.834 168.997 182.783 169.09 182.738L169.604 184.666C169.408 184.794 169.18 184.916 168.919 185.033C168.664 185.148 168.368 185.25 168.03 185.338C167.452 185.489 166.92 185.524 166.433 185.443C165.945 185.356 165.523 185.122 165.167 184.743C164.809 184.358 164.534 183.798 164.342 183.064L161.648 172.761ZM169.162 179.314L169.109 179.109C168.907 178.336 168.831 177.595 168.882 176.888C168.931 176.174 169.104 175.521 169.401 174.93C169.697 174.338 170.116 173.829 170.658 173.403C171.197 172.971 171.857 172.652 172.636 172.448C173.429 172.241 174.167 172.194 174.849 172.307C175.536 172.412 176.154 172.65 176.702 173.02C177.25 173.39 177.72 173.875 178.113 174.473C178.504 175.066 178.8 175.748 179.003 176.522L179.056 176.726C179.257 177.493 179.332 178.234 179.283 178.948C179.232 179.655 179.059 180.308 178.764 180.906C178.468 181.497 178.049 182.006 177.508 182.432C176.966 182.858 176.303 183.174 175.516 183.38C174.737 183.584 174.003 183.633 173.316 183.528C172.629 183.423 172.012 183.186 171.463 182.815C170.914 182.439 170.443 181.954 170.052 181.362C169.66 180.763 169.363 180.081 169.162 179.314ZM171.682 178.436L171.736 178.641C171.857 179.102 172.015 179.523 172.211 179.902C172.408 180.281 172.64 180.598 172.908 180.854C173.177 181.111 173.483 181.287 173.828 181.385C174.178 181.474 174.564 181.463 174.986 181.352C175.402 181.244 175.737 181.066 175.992 180.819C176.245 180.565 176.426 180.261 176.535 179.906C176.65 179.55 176.7 179.158 176.686 178.731C176.671 178.305 176.604 177.861 176.483 177.399L176.429 177.195C176.31 176.74 176.154 176.326 175.959 175.953C175.763 175.574 175.527 175.257 175.252 175.003C174.982 174.74 174.671 174.561 174.32 174.466C173.974 174.362 173.589 174.365 173.167 174.476C172.751 174.585 172.417 174.769 172.166 175.029C171.913 175.283 171.733 175.59 171.626 175.951C171.517 176.306 171.47 176.697 171.485 177.124C171.497 177.544 171.563 177.981 171.682 178.436ZM182.657 172.337L184.852 180.73L182.279 181.403L179.52 170.856L181.957 170.219L182.657 172.337ZM185.283 169.276L185.871 171.684C185.721 171.696 185.554 171.718 185.368 171.753C185.19 171.786 185.022 171.823 184.866 171.864C184.47 171.967 184.137 172.113 183.867 172.302C183.595 172.484 183.385 172.702 183.236 172.957C183.094 173.209 183.009 173.495 182.981 173.815C182.952 174.128 182.978 174.468 183.061 174.835L182.487 174.912C182.312 174.243 182.218 173.605 182.205 172.997C182.192 172.39 182.259 171.837 182.407 171.34C182.555 170.844 182.793 170.427 183.122 170.091C183.455 169.747 183.879 169.508 184.392 169.374C184.535 169.336 184.691 169.309 184.86 169.293C185.034 169.268 185.175 169.263 185.283 169.276Z" fill="white"/>
</g>
<defs>
<filter id="filter0_d_1842_17112" x="200.803" y="3.24526" width="104.93" height="114.056" filterUnits="userSpaceOnUse" color-interpolation-filters="sRGB">
<feFlood flood-opacity="0" result="BackgroundImageFix"/>
<feColorMatrix in="SourceAlpha" type="matrix" values="0 0 0 0 0 0 0 0 0 0 0 0 0 0 0 0 0 0 127 0" result="hardAlpha"/>
<feOffset dy="15.7538"/>
<feGaussianBlur stdDeviation="15.7538"/>
<feColorMatrix type="matrix" values="0 0 0 0 0.0625882 0 0 0 0 0.0926346 0 0 0 0 0.15702 0 0 0 0.18 0"/>
<feBlend mode="normal" in2="BackgroundImageFix" result="effect1_dropShadow_1842_17112"/>
<feBlend mode="normal" in="SourceGraphic" in2="effect1_dropShadow_1842_17112" result="shape"/>
</filter>
<filter id="filter1_d_1842_17112" x="19.7931" y="65.0557" width="263.545" height="273.287" filterUnits="userSpaceOnUse" color-interpolation-filters="sRGB">
<feFlood flood-opacity="0" result="BackgroundImageFix"/>
<feColorMatrix in="SourceAlpha" type="matrix" values="0 0 0 0 0 0 0 0 0 0 0 0 0 0 0 0 0 0 127 0" result="hardAlpha"/>
<feOffset dy="18.958"/>
<feGaussianBlur stdDeviation="18.958"/>
<feColorMatrix type="matrix" values="0 0 0 0 0.0625882 0 0 0 0 0.0926346 0 0 0 0 0.15702 0 0 0 0.18 0"/>
<feBlend mode="normal" in2="BackgroundImageFix" result="effect1_dropShadow_1842_17112"/>
<feBlend mode="normal" in="SourceGraphic" in2="effect1_dropShadow_1842_17112" result="shape"/>
</filter>
<pattern id="pattern0_1842_17112" patternContentUnits="objectBoundingBox" width="1" height="1">
<use xlink:href="#image0_1842_17112" transform="matrix(0.00102271 0 0 0.000857981 -1.21414 -1.21407)"/>
</pattern>
<filter id="filter2_d_1842_17112" x="112.86" y="65.0547" width="140.425" height="124.761" filterUnits="userSpaceOnUse" color-interpolation-filters="sRGB">
<feFlood flood-opacity="0" result="BackgroundImageFix"/>
<feColorMatrix in="SourceAlpha" type="matrix" values="0 0 0 0 0 0 0 0 0 0 0 0 0 0 0 0 0 0 127 0" result="hardAlpha"/>
<feOffset dy="18.958"/>
<feGaussianBlur stdDeviation="18.958"/>
<feColorMatrix type="matrix" values="0 0 0 0 0.0625882 0 0 0 0 0.0926346 0 0 0 0 0.15702 0 0 0 0.18 0"/>
<feBlend mode="normal" in2="BackgroundImageFix" result="effect1_dropShadow_1842_17112"/>
<feBlend mode="normal" in="SourceGraphic" in2="effect1_dropShadow_1842_17112" result="shape"/>
</filter>
<filter id="filter3_d_1842_17112" x="-0.43694" y="66.521" width="126.166" height="126.166" filterUnits="userSpaceOnUse" color-interpolation-filters="sRGB">
<feFlood flood-opacity="0" result="BackgroundImageFix"/>
<feColorMatrix in="SourceAlpha" type="matrix" values="0 0 0 0 0 0 0 0 0 0 0 0 0 0 0 0 0 0 127 0" result="hardAlpha"/>
<feMorphology radius="9.47898" operator="erode" in="SourceAlpha" result="effect1_dropShadow_1842_17112"/>
<feOffset dy="18.958"/>
<feGaussianBlur stdDeviation="18.958"/>
<feColorMatrix type="matrix" values="0 0 0 0 0.0625882 0 0 0 0 0.0926346 0 0 0 0 0.15702 0 0 0 0.18 0"/>
<feBlend mode="normal" in2="BackgroundImageFix" result="effect1_dropShadow_1842_17112"/>
<feBlend mode="normal" in="SourceGraphic" in2="effect1_dropShadow_1842_17112" result="shape"/>
</filter>
<linearGradient id="paint0_linear_1842_17112" x1="61.0726" y1="98.0444" x2="174.424" y2="264.577" gradientUnits="userSpaceOnUse">
<stop stop-color="#8793FF"/>
<stop offset="1" stop-color="#9747FF"/>
</linearGradient>
<clipPath id="clip0_1842_17112">
<rect width="280" height="243" fill="white"/>
</clipPath>valida
</defs>
</svg>
