<svg width="83" height="94" viewBox="0 0 83 94" fill="none" xmlns="http://www.w3.org/2000/svg" xmlns:xlink="http://www.w3.org/1999/xlink">
<g clip-path="url(#clip0_1808_17114)">
<g filter="url(#filter0_d_1808_17114)">
<path d="M15.4596 80.8852H67.5303C69.7981 80.8852 71.6364 79.0468 71.6364 76.7791V30.0441L50.5737 8.98145H15.4596C13.1919 8.98145 11.3535 10.8198 11.3535 13.0875V76.7791C11.3535 79.0468 13.1919 80.8852 15.4596 80.8852Z" fill="#D9D9D9"/>
<path d="M67.5303 80.6285H15.4596C13.3336 80.6285 11.6101 78.9051 11.6101 76.7791V13.0875C11.6101 10.9615 13.3336 9.23808 15.4596 9.23808H50.4674L71.3798 30.1504V76.7791C71.3798 78.9051 69.6563 80.6285 67.5303 80.6285Z" stroke="#F2F2F2" stroke-width="0.513263"/>
</g>
<mask id="mask0_1808_17114" style="mask-type:alpha" maskUnits="userSpaceOnUse" x="11" y="8" width="61" height="73">
<path d="M67.5303 80.6285H15.4596C13.3336 80.6285 11.6101 78.9051 11.6101 76.7791V13.0875C11.6101 10.9615 13.3336 9.23808 15.4596 9.23808H50.4674L71.3798 30.1504V76.7791C71.3798 78.9051 69.6563 80.6285 67.5303 80.6285Z" fill="#D9D9D9" stroke="#F2F2F2" stroke-width="0.513263"/>
</mask>
<g mask="url(#mask0_1808_17114)">
<rect x="-63" y="-33" width="231" height="114" fill="url(#pattern0_1808_17114)"/>
<rect x="11" y="9" width="60" height="72" fill="url(#pattern1_1808_17114)"/>
<path d="M67.5303 80.5318H15.4596C13.387 80.5318 11.7069 78.8516 11.7069 76.7791V13.0875C11.7069 11.0149 13.387 9.33479 15.4596 9.33479H50.4274L71.2831 30.1905V76.7791C71.2831 78.8517 69.6029 80.5318 67.5303 80.5318Z" fill="url(#paint0_linear_1808_17114)" style="mix-blend-mode:hue"/>
<path d="M67.5303 80.5318H15.4596C13.387 80.5318 11.7069 78.8516 11.7069 76.7791V13.0875C11.7069 11.0149 13.387 9.33479 15.4596 9.33479H50.4274L71.2831 30.1905V76.7791C71.2831 78.8517 69.6029 80.5318 67.5303 80.5318Z" stroke="#F2F2F2" stroke-width="0.70668"/>
</g>
<g filter="url(#filter1_d_1808_17114)">
<path d="M71.6348 30.0439L54.6782 30.0439C52.4104 30.0439 50.5721 28.2056 50.5721 25.9378L50.5721 8.98124L61.1034 19.5126L71.6348 30.0439Z" fill="#AEACFF"/>
</g>
<g filter="url(#filter2_d_1808_17114)">
<rect x="41" y="51.4814" width="36" height="19.2362" rx="5.05034" fill="#4845E7"/>
<rect x="41.3156" y="51.7971" width="35.3687" height="18.6049" rx="4.7347" stroke="url(#paint1_linear_1808_17114)" stroke-width="0.631293"/>
</g>
<path d="M48.3579 57.8936L49.7642 60.8774L51.1792 57.8936H52.5063L50.3794 61.9497V64.292H49.1533V61.9497L47.022 57.8936H48.3579ZM55.1475 58.8647L53.3237 64.292H52.0449L54.4355 57.8936H55.2529L55.1475 58.8647ZM56.6724 64.292L54.8398 58.8647L54.73 57.8936H55.5518L57.9556 64.292H56.6724ZM56.5889 61.9146V62.8682H53.1567V61.9146H56.5889ZM59.1421 57.8936H60.188L61.937 62.71L63.6816 57.8936H64.7319L62.3545 64.292H61.5151L59.1421 57.8936ZM58.6147 57.8936H59.6387L59.8232 62.3188V64.292H58.6147V57.8936ZM64.231 57.8936H65.2593V64.292H64.0508V62.3188L64.231 57.8936ZM70.5503 63.3428V64.292H67.3335V63.3428H70.5503ZM67.6982 57.8936V64.292H66.4897V57.8936H67.6982Z" fill="white"/>
</g>
<defs>
<filter id="filter0_d_1808_17114" x="-0.646484" y="0.981445" width="84.2832" height="95.9033" filterUnits="userSpaceOnUse" color-interpolation-filters="sRGB">
<feFlood flood-opacity="0" result="BackgroundImageFix"/>
<feColorMatrix in="SourceAlpha" type="matrix" values="0 0 0 0 0 0 0 0 0 0 0 0 0 0 0 0 0 0 127 0" result="hardAlpha"/>
<feOffset dy="4"/>
<feGaussianBlur stdDeviation="6"/>
<feColorMatrix type="matrix" values="0 0 0 0 0.0625882 0 0 0 0 0.0926346 0 0 0 0 0.15702 0 0 0 0.18 0"/>
<feBlend mode="normal" in2="BackgroundImageFix" result="effect1_dropShadow_1808_17114"/>
<feBlend mode="normal" in="SourceGraphic" in2="effect1_dropShadow_1808_17114" result="shape"/>
</filter>
<pattern id="pattern0_1808_17114" patternContentUnits="objectBoundingBox" width="1" height="1">
<use xlink:href="#image0_1808_17114" transform="scale(0.000288726 0.000581782)"/>
</pattern>
<pattern id="pattern1_1808_17114" patternContentUnits="objectBoundingBox" width="1" height="1">
<use xlink:href="#image0_1808_17114" transform="matrix(0.00102271 0 0 0.000857981 -1.21414 -1.21407)"/>
</pattern>
<filter id="filter1_d_1808_17114" x="35.4823" y="1.43649" width="51.2423" height="51.2423" filterUnits="userSpaceOnUse" color-interpolation-filters="sRGB">
<feFlood flood-opacity="0" result="BackgroundImageFix"/>
<feColorMatrix in="SourceAlpha" type="matrix" values="0 0 0 0 0 0 0 0 0 0 0 0 0 0 0 0 0 0 127 0" result="hardAlpha"/>
<feOffset dy="7.54496"/>
<feGaussianBlur stdDeviation="7.54496"/>
<feColorMatrix type="matrix" values="0 0 0 0 0.0625882 0 0 0 0 0.0926346 0 0 0 0 0.15702 0 0 0 0.18 0"/>
<feBlend mode="normal" in2="BackgroundImageFix" result="effect1_dropShadow_1808_17114"/>
<feBlend mode="normal" in="SourceGraphic" in2="effect1_dropShadow_1808_17114" result="shape"/>
</filter>
<filter id="filter2_d_1808_17114" x="27.08" y="46.8414" width="63.84" height="47.0763" filterUnits="userSpaceOnUse" color-interpolation-filters="sRGB">
<feFlood flood-opacity="0" result="BackgroundImageFix"/>
<feColorMatrix in="SourceAlpha" type="matrix" values="0 0 0 0 0 0 0 0 0 0 0 0 0 0 0 0 0 0 127 0" result="hardAlpha"/>
<feMorphology radius="4.64" operator="erode" in="SourceAlpha" result="effect1_dropShadow_1808_17114"/>
<feOffset dy="9.28001"/>
<feGaussianBlur stdDeviation="9.28001"/>
<feColorMatrix type="matrix" values="0 0 0 0 0.0625882 0 0 0 0 0.0926346 0 0 0 0 0.15702 0 0 0 0.18 0"/>
<feBlend mode="normal" in2="BackgroundImageFix" result="effect1_dropShadow_1808_17114"/>
<feBlend mode="normal" in="SourceGraphic" in2="effect1_dropShadow_1808_17114" result="shape"/>
</filter>
<linearGradient id="paint0_linear_1808_17114" x1="14.6219" y1="5.34995" x2="41.495" y2="80.8852" gradientUnits="userSpaceOnUse">
<stop stop-color="#8793FF"/>
<stop offset="1" stop-color="#9747FF"/>
</linearGradient>
<linearGradient id="paint1_linear_1808_17114" x1="44.5" y1="53.5" x2="59" y2="70.7176" gradientUnits="userSpaceOnUse">
<stop stop-color="white"/>
<stop offset="1" stop-color="white" stop-opacity="0.37"/>
</linearGradient>
<clipPath id="clip0_1808_17114">
<rect width="83" height="94" fill="white"/>
</clipPath>
</defs>
</svg>
